/* XPM */
static char *_a13fcefca144897ee6ab2491837b6078dhh18MrlrZo0Ugo[] = {
/* columns rows colors chars-per-pixel */
"48 48 33 1 ",
"  c #FFFFFF",
". c #003C10",
"X c #013C10",
"o c #003D10",
"O c #013D10",
"+ c #003C11",
"@ c #013C11",
"# c #003D11",
"$ c #013D11",
"% c #007A22",
"& c #017A22",
"* c #007B22",
"= c #017B22",
"- c #007A23",
"; c #017A23",
": c #007B23",
"> c #017B23",
", c #22B04C",
"< c #23B04C",
"1 c #22B14C",
"2 c #23B14C",
"3 c #22B04D",
"4 c #23B04D",
"5 c #22B14D",
"6 c #23B14D",
"7 c #A8E61C",
"8 c #A9E61C",
"9 c #A8E71C",
"0 c #A9E71C",
"q c #A8E61D",
"w c #A9E61D",
"e c #A8E71D",
"r c #A9E71D",
/* pixels */
"         ------------      ------------         ",
"         ------------      ------------         ",
"         ------------      ------------         ",
"         ---wwwwwwwww$$$$$$wwwwwwwww---         ",
"         ---wwwwwwwww$$$$$$wwwwwwwww---         ",
"         ---wwwwwwwww$$$$$$wwwwwwwww---         ",
"      ---------$$$wwwwwwwwwwww$$$---------      ",
"      ---------$$$wwwwwwwwwwww$$$---------      ",
"      ---------$$$wwwwwwwwwwww$$$---------      ",
"   ---wwwwww,,,,,,,,,wwwwww,,,,,,,,,wwwwww---   ",
"   ---wwwwww,,,,,,,,,wwwwww,,,,,,,,,wwwwww---   ",
"   ---wwwwww,,,,,,,,,wwwwww,,,,,,,,,wwwwww---   ",
"   ---www,,,$$$wwwwww,,,,,,wwwwww$$$,,,www---   ",
"   ---www,,,$$$wwwwww,,,,,,wwwwww$$$,,,www---   ",
"   ---www,,,$$$wwwwww,,,,,,wwwwww$$$,,,www---   ",
"      $$$$$$wwwwww,,,------,,,wwwwww$$$$$$      ",
"      $$$$$$wwwwww,,,------,,,wwwwww$$$$$$      ",
"      $$$$$$wwwwww,,,------,,,wwwwww$$$$$$      ",
"   $$$wwwwww,,,,,,www,,,,,,www,,,,,,wwwwww$$$   ",
"   $$$wwwwww,,,,,,www,,,,,,www,,,,,,wwwwww$$$   ",
"   $$$wwwwww,,,,,,www,,,,,,www,,,,,,wwwwww$$$   ",
"   $$$www,,,www$$$www,,,,,,www$$$www,,,www$$$   ",
"   $$$www,,,www$$$www,,,,,,www$$$www,,,www$$$   ",
"   $$$www,,,www$$$www,,,,,,www$$$www,,,www$$$   ",
"   $$$wwwwwwwww$$$wwwwwwwwwwww$$$wwwwwwwww$$$   ",
"   $$$wwwwwwwww$$$wwwwwwwwwwww$$$wwwwwwwww$$$   ",
"   $$$wwwwwwwww$$$wwwwwwwwwwww$$$wwwwwwwww$$$   ",
"   $$$$$$$$$$$$www$$$wwwwww$$$www$$$$$$$$$$$$   ",
"   $$$$$$$$$$$$www$$$wwwwww$$$www$$$$$$$$$$$$   ",
"   $$$$$$$$$$$$www$$$wwwwww$$$www$$$$$$$$$$$$   ",
"$$$wwwwww$$$www,,,$$$wwwwww$$$,,,www$$$wwwwww$$$",
"$$$wwwwww$$$www,,,$$$wwwwww$$$,,,www$$$wwwwww$$$",
"$$$wwwwww$$$www,,,$$$wwwwww$$$,,,www$$$wwwwww$$$",
"$$$www$$$wwwwww,,,,,,$$$$$$,,,,,,wwwwww$$$www$$$",
"$$$www$$$wwwwww,,,,,,$$$$$$,,,,,,wwwwww$$$www$$$",
"$$$www$$$wwwwww,,,,,,$$$$$$,,,,,,wwwwww$$$www$$$",
"   $$$wwwwww,,,www,,,,,,,,,,,,www,,,wwwwww$$$   ",
"   $$$wwwwww,,,www,,,,,,,,,,,,www,,,wwwwww$$$   ",
"   $$$wwwwww,,,www,,,,,,,,,,,,www,,,wwwwww$$$   ",
"$$$wwwwww$$$wwwwww$$$wwwwww$$$wwwwww$$$wwwwww$$$",
"$$$wwwwww$$$wwwwww$$$wwwwww$$$wwwwww$$$wwwwww$$$",
"$$$wwwwww$$$wwwwww$$$wwwwww$$$wwwwww$$$wwwwww$$$",
"$$$www$$$wwwwww$$$$$$wwwwww$$$$$$wwwwww$$$www$$$",
"$$$www$$$wwwwww$$$$$$wwwwww$$$$$$wwwwww$$$www$$$",
"$$$www$$$wwwwww$$$$$$wwwwww$$$$$$wwwwww$$$www$$$",
"   $$$$$$wwwwww$$$$$$wwwwww$$$$$$wwwwww$$$$$$   ",
"   $$$$$$wwwwww$$$$$$wwwwww$$$$$$wwwwww$$$$$$   ",
"   $$$$$$wwwwww$$$$$$wwwwww$$$$$$wwwwww$$$$$$   "
};
