/* XPM */
static char *_7e9adce25414aecbcc013845881fa0eAoISmgkYUKumKKUI[] = {
/* columns rows colors chars-per-pixel */
"48 48 37 1 ",
"  c #FFFFFF",
". c black",
"X c #010000",
"o c #000100",
"O c #010100",
"+ c #000001",
"@ c #010001",
"# c #000101",
"$ c #010101",
"% c #9C5A3C",
"& c #9C5B3C",
"* c #9C5A3D",
"= c #9C5B3D",
"- c #9D5B3D",
"; c #FE7E00",
": c #FF7E00",
"> c #FE7F00",
", c #FF7F00",
"< c #FE7E01",
"1 c #FF7E01",
"2 c #FE7F01",
"3 c #FF7F01",
"4 c #FEF200",
"5 c #FFF200",
"6 c #FEF300",
"7 c #FFF300",
"8 c #FEF201",
"9 c #FFF201",
"0 c #FEF301",
"q c #FFF301",
"w c #FEFEFE",
"e c #FFFEFE",
"r c #FEFFFE",
"t c #FFFFFE",
"y c #FEFEFF",
"u c #FEFFFF",
"i c white",
/* pixels */
"                           ###                  ",
"                           ###                  ",
"                           ###                  ",
"                        ######                  ",
"                        ######                  ",
"                        ######                  ",
"                        ###                     ",
"                        ###                     ",
"                        ###                     ",
"                  ############                  ",
"                  ############                  ",
"                  ############                  ",
"            ######555======:::######            ",
"            ######555======:::######            ",
"            ######555======:::######            ",
"         ###555555555555:::555::::::###         ",
"         ###555555555555:::555::::::###         ",
"         ###555555555555:::555::::::###         ",
"         ###555wwwwww555555555555:::###         ",
"         ###555wwwwww555555555555:::###         ",
"         ###555wwwwww555555555555:::###         ",
"      ###555wwwwww555555555555555::::::###      ",
"      ###555wwwwww555555555555555::::::###      ",
"      ###555wwwwww555555555555555::::::###      ",
"      ###555wwwwww555555555555555::::::###      ",
"      ###555wwwwww555555555555555::::::###      ",
"      ###555wwwwww555555555555555::::::###      ",
"      ###555555555555555555555555::::::###      ",
"      ###555555555555555555555555::::::###      ",
"      ###555555555555555555555555::::::###      ",
"      ###555555555555555555555555::::::###      ",
"      ###555555555555555555555555::::::###      ",
"      ###555555555555566555555555::::::###      ",
"         ###:::555555555655555::::::###         ",
"         ###:::555555555555555::::::###         ",
"         ###:::555555555555555::::::###         ",
"         ###::::::::::::::::::::::::###         ",
"         ###::::::::::::::::::::::::###         ",
"         ###::::::::::::::::::::::::###         ",
"            ###::::::======::::::###            ",
"            ###::::::======::::::###            ",
"            ###::::::======::::::###            ",
"               ######      ######               ",
"               ######      ######               ",
"               ######      ######               ",
"                                                ",
"                                                ",
"                                                "
};
