/* XPM */
static char *_46a39774fad4faff9813c6a06389628kPbWma7ebM3svdF4[] = {
/* columns rows colors chars-per-pixel */
"48 48 38 1 ",
"  c #FFFFFF",
". c #6E402C",
"X c #6F402C",
"o c #6E412C",
"O c #6F412C",
"+ c #6E402D",
"@ c #6F402D",
"# c #6E412D",
"$ c #6F412D",
"% c #9C5A3C",
"& c #9D5A3C",
"* c #9C5B3C",
"= c #9D5B3C",
"- c #9C5A3D",
"; c #9D5A3D",
": c #9C5B3D",
"> c #9D5B3D",
", c #FE7F00",
"< c #FE7E01",
"1 c #FE7F01",
"2 c #FEC20E",
"3 c #FEC30E",
"4 c #FFC30E",
"5 c #FEC20F",
"6 c #FFC20F",
"7 c #FEC30F",
"8 c #FFC30F",
"9 c #FEF200",
"0 c #FEF300",
"q c #FEF201",
"w c #E4AA7A",
"e c #E5AA7A",
"r c #E4AB7A",
"t c #E5AB7A",
"y c #E4AA7B",
"u c #E5AA7B",
"i c #E4AB7B",
"p c #E5AB7B",
/* pixels */
"rrrrrrrrrrrrrrrrrrrrrrrrrrrrrrrrrrrrrrrrrr***+++",
"rrrrrrrrrrrrrrrrrrrrrrrrrrrrrrrrrrrrrrrrrr***+++",
"rrrrrrrrrrrrrrrrrrrrrrrrrrrrrrrrrrrrrrrrrr***+++",
"rrr***************rrrrrrrrr+++***************+++",
"rrr***************rrrrrrrrr+++***************+++",
"rrr***************rrrrrrrrr+++***************+++",
"rrr***++++++++++++rrr******+++++++++++++++***+++",
"rrr***++++++++++++rrr******+++++++++++++++***+++",
"rrr***++++++++++++rrr******+++++++++++++++***+++",
"rrr***+++         rrr******+++         rrr***+++",
"rrr***+++         rrr******+++         rrr***+++",
"rrr***+++         rrr******+++         rrr***+++",
"rrr***+++         rrr******+++         rrr***+++",
"rrr***+++         rrr******+++         rrr***+++",
"rrr***+++         rrr******+++         rrr***+++",
"rrr***+++         rrr******+++         rrr***+++",
"rrr***+++         rrr******+++         rrr***+++",
"rrr***+++         rrr******+++         rrr***+++",
"rrrrrrrrrrrrrrrrrrrrrrrrrrrrrrrrrrrrqqq888rrr+++",
"rrrrrrrrrrrrrrrrrrrrrrrrrrrrrrrrrrrrqqq888rrr+++",
"rrrrrrrrrrrrrrrrrrrrrrrrrrrrrrrrrrrrqqq888rrr+++",
"rrrrrr***************************qqq******888+++",
"rrrrrr***************************qqq******888+++",
"rrrrrr***************************qqq******888+++",
"rrrrrr***************************888******<<<+++",
"rrrrrr***************************888******<<<+++",
"rrrrrr***************************888******<<<+++",
"rrr+++++++++++++++++++++++++++++++++888<<<++++++",
"rrr+++++++++++++++++++++++++++++++++888<<<++++++",
"rrr+++++++++++++++++++++++++++++++++888<<<++++++",
"rrr***+++         ***+++++++++         rrr***+++",
"rrr***+++         ***+++++++++         rrr***+++",
"rrr***+++         ***+++++++++         rrr***+++",
"rrr***+++         rrr******+++         rrr***+++",
"rrr***+++         rrr******+++         rrr***+++",
"rrr***+++         rrr******+++         rrr***+++",
"rrr***+++         rrr******+++         rrr***+++",
"rrr***+++         rrr******+++         rrr***+++",
"rrr***+++         rrr******+++         rrr***+++",
"rrr***+++rrrrrrrrrrrr******+++rrrrrrrrrrrr***+++",
"rrr***+++rrrrrrrrrrrr******+++rrrrrrrrrrrr***+++",
"rrr***+++rrrrrrrrrrrr******+++rrrrrrrrrrrr***+++",
"******************rrr+++++++++***************+++",
"******************rrr+++++++++***************+++",
"******************rrr+++++++++***************+++",
"++++++++++++++++++++++++++++++++++++++++++++++++",
"++++++++++++++++++++++++++++++++++++++++++++++++",
"++++++++++++++++++++++++++++++++++++++++++++++++"
};
