/* XPM */
static char *eef5aefd66604c5bc2e76e9706e08402fktpWdlyFX4glj0R[] = {
/* columns rows colors chars-per-pixel */
"48 48 12 1 ",
"  c #010001",
". c #464746",
"X c #5D5A5A",
"o c #9C5A3D",
"O c #66FE01",
"+ c #E5AB7B",
"@ c #8F8E8E",
"# c #8E8F8E",
"$ c #B4B4B5",
"% c #F4E49D",
"& c #E6E7E6",
"* c #FFFEFF",
/* pixels */
"$$$$$$OOOOOO&&&&&&&&&&&&$$$OOO######OOO&&&&&&$$$",
"$$$$$$OOOOOO&&&&&&&&&&&&$$$OOO######OOO&&&&&&$$$",
"$$$$$$OOOOOO&&&&&&&&&&&&$$$OOO######OOO&&&&&&$$$",
"######OOO&&&$$$$$$$$$      ###OOOOOO&&&$$$$$$$$$",
"######OOO&&&$$$$$$$$$      ###OOOOOO&&&$$$$$$$$$",
"######OOO&&&$$$$$$$$$      ###OOOOOO&&&$$$$$$$$$",
"###XXXOOO&&&$$$$$$   ......   ###OOO...$$$######",
"###XXXOOO&&&$$$$$$   ......   ###OOO...$$$######",
"###XXXOOO&&&$$$$$$   ......   ###OOO...$$$######",
"XXXOOOOOO$$$#########oooooo###...OOOOOO...######",
"XXXOOOOOO$$$#########oooooo###...OOOOOO...######",
"XXXOOOOOO$$$#########oooooo###...OOOOOO...######",
"OOOOOOOOOOOO...   ###oooooo...   OOOOOOOOO......",
"OOOOOOOOOOOO...   ###oooooo...   OOOOOOOOO......",
"OOOOOOOOOOOO...   ###oooooo...   OOOOOOOOO......",
"OOO&&&&&&$$$   ooo   oooooo   ooo   $$$OOOOOOOOO",
"OOO&&&&&&$$$   ooo   oooooo   ooo   $$$OOOOOOOOO",
"OOO&&&&&&$$$   ooo   oooooo   ooo   $$$OOOOOOOOO",
"&&&$$$$$$   ooooooooo      ooooooooo   $$$OOO&&&",
"&&&$$$$$$   ooooooooo      ooooooooo   $$$OOO&&&",
"&&&$$$$$$   ooooooooo      ooooooooo   $$$OOO&&&",
"$$$$$$###   ooo+++oooooooooooo+++ooo   ...&&&$$$",
"$$$$$$###   ooo+++oooooooooooo+++ooo   ...&&&$$$",
"$$$$$$###   ooo+++oooooooooooo+++ooo   ...&&&$$$",
"######   ooo+++   +++oooooo+++   +++ooo   ######",
"######   ooo+++   +++oooooo+++   +++ooo   ######",
"######   ooo+++   +++oooooo+++   +++ooo   ######",
"###...   ooo   OOO   ++++++   ###   ooo   ...###",
"###...   ooo   OOO   ++++++   ###   ooo   ...###",
"###...   ooo   OOO   ++++++   ###   ooo   ...###",
"...   ooo+++   OOO...      ###...   +++ooo   ...",
"...   ooo+++   OOO...      ###...   +++ooo   ...",
"...   ooo+++   OOO...      ###...   +++ooo   ...",
"OOO   ooo   $$$$$$OOOoooooo...OOOOOO   ooo   ###",
"OOO   ooo   $$$$$$OOOoooooo...OOOOOO   ooo   ###",
"OOO   ooo   $$$$$$OOOoooooo...OOOOOO   ooo   ###",
"   ooo+++   #########ooooooOOO&&&&&&   +++ooo   ",
"   ooo+++   #########ooooooOOO&&&&&&   +++ooo   ",
"   ooo+++   #########ooooooOOO&&&&&&   +++ooo   ",
"   ooo+++   ######   ******   $$$$$$   +++ooo   ",
"   ooo+++   ######   ******   $$$$$$   +++ooo   ",
"   ooo+++   ######   ******   $$$$$$   +++ooo   ",
"   ooo   ############      $$$$$$######   ooo   ",
"   ooo   ############      $$$$$$######   ooo   ",
"   ooo   ############      $$$$$$######   ooo   ",
"$$$   %%%%%%%%%%%%%%%%%%%%%%%%%%%%%%%%%%%%   &&&",
"$$$   %%%%%%%%%%%%%%%%%%%%%%%%%%%%%%%%%%%%   &&&",
"$$$   %%%%%%%%%%%%%%%%%%%%%%%%%%%%%%%%%%%%   &&&"
};
