/* XPM */
static char *_35d94ba9ca54270a7e5305cca44d17d7s6Iv6EJ6BBwoIS2[] = {
/* columns rows colors chars-per-pixel */
"48 48 10 1 ",
"  c #010001",
". c #464746",
"X c #5D5A5A",
"o c #9C5A3D",
"O c #67FE01",
"+ c #E4AA7A",
"@ c #8F8E8E",
"# c #B4B4B5",
"$ c #F5E49D",
"% c #E6E7E6",
/* pixels */
"###         %%%%%%%%%%%%###OOO@@@@@@OOO%%%%%%###",
"###         %%%%%%%%%%%%###OOO@@@@@@OOO%%%%%%###",
"###         %%%%%%%%%%%%###OOO@@@@@@OOO%%%%%%###",
"   ooooooooo      ######@@@@@@OOOOOO%%%#########",
"   ooooooooo      ######@@@@@@OOOOOO%%%#########",
"   ooooooooo      ######@@@@@@OOOOOO%%%#########",
"$$$   ++++++oooooo      @@@@@@@@@OOO...###@@@@@@",
"$$$   ++++++oooooo      @@@@@@@@@OOO...###@@@@@@",
"$$$   ++++++oooooo      @@@@@@@@@OOO...###@@@@@@",
"$$$OOO         +++oooooo      ...OOOOOO...@@@@@@",
"$$$OOO         +++oooooo      ...OOOOOO...@@@@@@",
"$$$OOO         +++oooooo      ...OOOOOO...@@@@@@",
"$$$OOOOOOOOO...      +++oooooo   OOOOOOOOO......",
"$$$OOOOOOOOO...      +++oooooo   OOOOOOOOO......",
"$$$OOOOOOOOO...      +++oooooo   OOOOOOOOO......",
"$$$%%%%%%###OOO......   +++oooooo   ###OOOOOOOOO",
"$$$%%%%%%###OOO......   +++oooooo   ###OOOOOOOOO",
"$$$%%%%%%###OOO......   +++oooooo   ###OOOOOOOOO",
"$$$######@@@###OOO   +++oooooo   #########OOO%%%",
"$$$######@@@###OOO   +++oooooo   #########OOO%%%",
"$$$######@@@###OOO   +++oooooo   #########OOO%%%",
"$$$###@@@@@@...   +++oooooo   ###@@@@@@...%%%###",
"$$$###@@@@@@...   +++oooooo   ###@@@@@@...%%%###",
"$$$###@@@@@@...   +++oooooo   ###@@@@@@...%%%###",
"$$$@@@@@@...OOO   +++oooooo   @@@@@@...OOO@@@@@@",
"$$$@@@@@@...OOO   +++oooooo   @@@@@@...OOO@@@@@@",
"$$$@@@@@@...OOO   +++oooooo   @@@@@@...OOO@@@@@@",
"$$$......OOOOOOOOO   +++oooooo   ...OOOOOO...@@@",
"$$$......OOOOOOOOO   +++oooooo   ...OOOOOO...@@@",
"$$$......OOOOOOOOO   +++oooooo   ...OOOOOO...@@@",
"$$$OOOOOO%%%###OOO...   +++oooooo   OOOOOOOOO...",
"$$$OOOOOO%%%###OOO...   +++oooooo   OOOOOOOOO...",
"$$$OOOOOO%%%###OOO...   +++oooooo   OOOOOOOOO...",
"$$$OOO%%%######      +++oooooo   OOO%%%######@@@",
"$$$OOO%%%######      +++oooooo   OOO%%%######@@@",
"$$$OOO%%%######      +++oooooo   OOO%%%######@@@",
"$$$%%%         +++oooooo      %%%%%%######@@@XXX",
"$$$%%%         +++oooooo      %%%%%%######@@@XXX",
"$$$%%%         +++oooooo      %%%%%%######@@@XXX",
"$$$   ++++++oooooo      OOO%%%######@@@@@@XXX...",
"$$$   ++++++oooooo      OOO%%%######@@@@@@XXX...",
"$$$   ++++++oooooo      OOO%%%######@@@@@@XXX...",
"   ooooooooo      @@@...OOO######@@@@@@XXX...OOO",
"   ooooooooo      @@@...OOO######@@@@@@XXX...OOO",
"   ooooooooo      @@@...OOO######@@@@@@XXX...OOO",
"###         .........OOOOOO...@@@@@@XXX...%%%%%%",
"###         .........OOOOOO...@@@@@@XXX...%%%%%%",
"###         .........OOOOOO...@@@@@@XXX...%%%%%%"
};
