/* XPM */
static char *_022c8ee8b264f62cf365ca6cebd997f7tSuU3y8aZbJZzP8[] = {
/* columns rows colors chars-per-pixel */
"48 48 11 1 ",
"  c #000100",
". c #464746",
"X c #5D5A5A",
"o c #9D5B3C",
"O c #66FE01",
"+ c #E5AA7A",
"@ c #8F8E8E",
"# c #B4B4B5",
"$ c #F5E49C",
"% c #E6E6E6",
"& c #FFFEFF",
/* pixels */
"###   $$$$$$$$$$$$$$$$$$$$$$$$$$$$$$$$$$$$   ###",
"###   $$$$$$$$$$$$$$$$$$$$$$$$$$$$$$$$$$$$   ###",
"###   $$$$$$$$$$$$$$$$$$$$$$$$$$$$$$$$$$$$   ###",
"   ooo   %%%#########      @@@OOOOOO%%%   ooo   ",
"   ooo   %%%#########      @@@OOOOOO%%%   ooo   ",
"   ooo   %%%#########      @@@OOOOOO%%%   ooo   ",
"   ooo+++   ######   &&&&&&   @@@OOO   +++ooo   ",
"   ooo+++   ######   &&&&&&   @@@OOO   +++ooo   ",
"   ooo+++   ######   &&&&&&   @@@OOO   +++ooo   ",
"   ooo+++   @@@@@@@@@oooooo@@@...OOO   +++ooo   ",
"   ooo+++   @@@@@@@@@oooooo@@@...OOO   +++ooo   ",
"   ooo+++   @@@@@@@@@oooooo@@@...OOO   +++ooo   ",
"OOO   ooo   ...@@@@@@oooooo...OOOOOO   ooo   ...",
"OOO   ooo   ...@@@@@@oooooo...OOOOOO   ooo   ...",
"OOO   ooo   ...@@@@@@oooooo...OOOOOO   ooo   ...",
"OOO   ooo+++   ......      OOO%%%   +++ooo   OOO",
"OOO   ooo+++   ......      OOO%%%   +++ooo   OOO",
"OOO   ooo+++   ......      OOO%%%   +++ooo   OOO",
"%%%###   ooo   OOO   ++++++   ###   ooo   OOO%%%",
"%%%###   ooo   OOO   ++++++   ###   ooo   OOO%%%",
"%%%###   ooo   OOO   ++++++   ###   ooo   OOO%%%",
"######   ooo+++   +++oooooo+++   +++ooo   %%%###",
"######   ooo+++   +++oooooo+++   +++ooo   %%%###",
"######   ooo+++   +++oooooo+++   +++ooo   %%%###",
"@@@@@@@@@   ooo+++oooooooooooo+++ooo   OOO@@@@@@",
"@@@@@@@@@   ooo+++oooooooooooo+++ooo   OOO@@@@@@",
"@@@@@@@@@   ooo+++oooooooooooo+++ooo   OOO@@@@@@",
"@@@......   ooooooooo      ooooooooo   OOO...@@@",
"@@@......   ooooooooo      ooooooooo   OOO...@@@",
"@@@......   ooooooooo      ooooooooo   OOO...@@@",
"...OOOOOO%%%   ooo   oooooo   ooo   OOOOOOOOO...",
"...OOOOOO%%%   ooo   oooooo   ooo   OOOOOOOOO...",
"...OOOOOO%%%   ooo   oooooo   ooo   OOOOOOOOO...",
"OOOOOO%%%######   OOOoooooo...   OOO%%%######@@@",
"OOOOOO%%%######   OOOoooooo...   OOO%%%######@@@",
"OOOOOO%%%######   OOOoooooo...   OOO%%%######@@@",
"OOO%%%######@@@@@@@@@ooooooOOO%%%%%%######@@@XXX",
"OOO%%%######@@@@@@@@@ooooooOOO%%%%%%######@@@XXX",
"OOO%%%######@@@@@@@@@ooooooOOO%%%%%%######@@@XXX",
"OOO%%%###@@@@@@@@@   ......   ######@@@@@@XXX...",
"OOO%%%###@@@@@@@@@   ......   ######@@@@@@XXX...",
"OOO%%%###@@@@@@@@@   ......   ######@@@@@@XXX...",
"OOOOOO@@@@@@@@@@@@@@@      ######@@@@@@XXX...OOO",
"OOOOOO@@@@@@@@@@@@@@@      ######@@@@@@XXX...OOO",
"OOOOOO@@@@@@@@@@@@@@@      ######@@@@@@XXX...OOO",
"###OOO...............OOOOOO...@@@@@@XXX...%%%%%%",
"###OOO...............OOOOOO...@@@@@@XXX...%%%%%%",
"###OOO...............OOOOOO...@@@@@@XXX...%%%%%%"
};
