/* XPM */
static char *_0eb4e87f0cd46bc95acd829129159434DaP9qMoo5WOCrz8[] = {
/* columns rows colors chars-per-pixel */
"48 48 11 1 ",
"  c #000001",
". c #464746",
"X c #5D5A5A",
"o c #9D5B3D",
"O c #66FE01",
"+ c #E5AB7A",
"@ c #8E8F8E",
"# c #B4B4B5",
"$ c #F5E49D",
"% c #E6E7E6",
"& c #FEFFFF",
/* pixels */
"######OOOOOO%%%%%%%%%%%%###OOO@@@@@@         ###",
"######OOOOOO%%%%%%%%%%%%###OOO@@@@@@         ###",
"######OOOOOO%%%%%%%%%%%%###OOO@@@@@@         ###",
"@@@@@@OOO%%%############@@@@@@      ooooooooo   ",
"@@@@@@OOO%%%############@@@@@@      ooooooooo   ",
"@@@@@@OOO%%%############@@@@@@      ooooooooo   ",
"@@@XXXOOO%%%######@@@@@@      oooooo++++++   $$$",
"@@@XXXOOO%%%######@@@@@@      oooooo++++++   $$$",
"@@@XXXOOO%%%######@@@@@@      oooooo++++++   $$$",
"XXXOOOOOO###@@@@@@      oooooo+++         @@@$$$",
"XXXOOOOOO###@@@@@@      oooooo+++         @@@$$$",
"XXXOOOOOO###@@@@@@      oooooo+++         @@@$$$",
"OOOOOOOOOOOO...   oooooo+++      OOOOOOOOO...$$$",
"OOOOOOOOOOOO...   oooooo+++      OOOOOOOOO...$$$",
"OOOOOOOOOOOO...   oooooo+++      OOOOOOOOO...$$$",
"OOO%%%%%%###   oooooo+++   OOO%%%%%%###OOOOOO$$$",
"OOO%%%%%%###   oooooo+++   OOO%%%%%%###OOOOOO$$$",
"OOO%%%%%%###   oooooo+++   OOO%%%%%%###OOOOOO$$$",
"%%%###   @@@###   oooooo+++   #########   OOO$$$",
"%%%###   @@@###   oooooo+++   #########   OOO$$$",
"%%%###   @@@###   oooooo+++   #########   OOO$$$",
"###   ...ooooooooo   oooooo+++   oooooo&&&   $$$",
"###   ...ooooooooo   oooooo+++   oooooo&&&   $$$",
"###   ...ooooooooo   oooooo+++   oooooo&&&   $$$",
"@@@   ...ooooooooo   oooooo+++   oooooo&&&   $$$",
"@@@   ...ooooooooo   oooooo+++   oooooo&&&   $$$",
"@@@   ...ooooooooo   oooooo+++   oooooo&&&   $$$",
"@@@...   OOOOOO   oooooo+++   @@@...OOO   ...$$$",
"@@@...   OOOOOO   oooooo+++   @@@...OOO   ...$$$",
"@@@...   OOOOOO   oooooo+++   @@@...OOO   ...$$$",
"...OOOOOO%%%   oooooo+++   @@@...OOOOOOOOOOOO$$$",
"...OOOOOO%%%   oooooo+++   @@@...OOOOOOOOOOOO$$$",
"...OOOOOO%%%   oooooo+++   @@@...OOOOOOOOOOOO$$$",
"OOOOOO%%%######   oooooo+++      OOO%%%######$$$",
"OOOOOO%%%######   oooooo+++      OOO%%%######$$$",
"OOOOOO%%%######   oooooo+++      OOO%%%######$$$",
"OOO%%%######@@@@@@      oooooo+++         @@@$$$",
"OOO%%%######@@@@@@      oooooo+++         @@@$$$",
"OOO%%%######@@@@@@      oooooo+++         @@@$$$",
"OOO%%%###@@@@@@@@@@@@@@@      oooooo++++++   $$$",
"OOO%%%###@@@@@@@@@@@@@@@      oooooo++++++   $$$",
"OOO%%%###@@@@@@@@@@@@@@@      oooooo++++++   $$$",
"OOOOOO@@@@@@@@@@@@@@@...OOO###      ooooooooo   ",
"OOOOOO@@@@@@@@@@@@@@@...OOO###      ooooooooo   ",
"OOOOOO@@@@@@@@@@@@@@@...OOO###      ooooooooo   ",
"###OOO...............OOOOOO...@@@@@@         %%%",
"###OOO...............OOOOOO...@@@@@@         %%%",
"###OOO...............OOOOOO...@@@@@@         %%%"
};
