/* XPM */
static char *result[] = {
/* columns rows colors chars-per-pixel */
"48 48 75 1 ",
"  c black",
". c #010000",
"X c #000100",
"o c #010100",
"O c #000001",
"+ c #010001",
"@ c #000101",
"# c #010101",
"$ c #464646",
"% c #474646",
"& c #464746",
"* c #474746",
"= c #464647",
"- c #474647",
"; c #464747",
": c gray28",
"> c #5D5A5A",
", c #5C5B5A",
"< c #5D5B5A",
"1 c #5D5A5B",
"2 c #9C5A3C",
"3 c #9D5A3C",
"4 c #9C5B3C",
"5 c #9D5B3C",
"6 c #9C5A3D",
"7 c #9D5A3D",
"8 c #9C5B3D",
"9 c #9D5B3D",
"0 c #66FE00",
"q c #67FE00",
"w c #66FF00",
"e c #67FF00",
"r c #66FE01",
"t c #67FE01",
"y c #66FF01",
"u c #67FF01",
"i c #E4AA7A",
"p c #E5AA7A",
"a c #E4AB7A",
"s c #E5AB7A",
"d c #E4AA7B",
"f c #E4AB7B",
"g c #E5AB7B",
"h c #8E8E8E",
"j c #8F8E8E",
"k c #8E8F8E",
"l c #8F8F8E",
"z c #8E8E8F",
"x c #8F8E8F",
"c c #8E8F8F",
"v c gray56",
"b c #B4B4B4",
"n c #B5B4B4",
"m c #B4B5B4",
"M c #B5B5B4",
"N c #B4B4B5",
"B c #B5B4B5",
"V c #B4B5B5",
"C c gray71",
"Z c #F4E49C",
"A c #F5E49C",
"S c #F4E59C",
"D c #F5E59C",
"F c #F4E49D",
"G c #F5E49D",
"H c #F4E59D",
"J c #F5E59D",
"K c #E6E6E6",
"L c #E7E6E6",
"P c #E6E7E6",
"I c #E7E7E6",
"U c #E6E6E7",
"Y c #E7E6E7",
"T c #E6E7E7",
"R c #E7E7E7",
/* pixels */
"NNNbbbrrrrrrUUURRRPPPKKKmmmeeehhhcccqqqLLLYYYbNB",
"NNNbbbrrrrrrUUURRRTPPKKKmmmeeezhhcccqeqYLLLYYbNB",
"NNNbbbrrtrrrUUURRRPPPKKKmmMeeehhhcccqeqLLLYYYNVN",
"kkkcccqqqKKKBBBMMMBBBNbbjjjllleeeyyyKKKMMMCCCmbM",
"kkkcccqq0UKLBBBMMMBBBbmbjjjllleeeyyuKKKCMmCCCmmm",
"kkkcccqqqKKLBBBMMMBBBbmbjjjllleeeyyyKKKMnMCCCmmm",
"vvv>>>qqqKKKNNNVVVlvvlxvlllcccxjjetu&&&NNNccvjjj",
"vvv1>>qqqKKKNNNVVVvvvvxvlllcccxjjuuu&&&NNNcccjjj",
"vvv><>qqqKKKNNNVNVlxvvxvvllcccxjjuuu&&&NNNcccjjj",
"<<,tttyyymmMccclvvxxxllkzzzkkk:::tut000===kkkkkk",
"<<<tttyyymmmcccvvvxxxlllzzzkkk:::ttt000==-kkkkkl",
"<<<qutyyymmmcccvvvxvxlllzzzckl:::tut000==-kkkckk",
"rrrueewwwuuu&;;XXXczc&&&$$$;;;.o.rrrw0wttt&&&;;;",
"ryteewwwwuuu;=;XXXccc&&&$$%;;;...rrrwwwtut&&&;;;",
"rrreeeywwuuu;;:XXXccc&&&$$$;;;...rrrwwwttr&&&;;;",
"uuuPPPTPPbbb...666oXX000yruooo222#@@CCCwyyuuueuu",
"uuuPKPPPPNbb..+666X X000wyyooo226@@XCCVyyuuuuuuu",
"euuPPPPPPNbb...662XXXr00yyyooo222#@@CCCyyyuuyeuu",
"RIIbbnVVVXXX888333666   @@@322666797###NNNyyuYYU",
"ILIbbbVNVXXX888333666   @@@222666777###NNNyyyYYY",
"RIIbbbVVVXXX888337666   @@@322666777###NNNyyyYYY",
"Nbnnnnjjh   222aaa555999777448iii333+OO===YYYbVN",
"bbbnnnjjh   226aaa555899797444iii353OOO$==YYYNNB",
"Nbbnnnjjh   222aaf555999773444iii353+O ==-LYYbNN",
"ccczzzXXX559sssO++aaa222444ddd.  psp535OOOjjjlll",
"ccczczo X535ssg+++aaa222444ddd   ppp455OOOjjjlll",
"ccczczXXX555sss+++aaa222424ddd   ppp555OOOxjjlll",
"zzz---@@@888...wwwOOOfffggg   vvv+++777O@O:::jjj",
"zzz---@@@868...ywwOOOfffggg   vxv+++777OOO:::jjj",
"zzz---@@@888...wwwOOOfdaggg   vxv+++777OOO::;jjj",
"***@@@333ass#@@000%%%...###jjj%%%ooosss333OOO:::",
"***@@@333sss@@@000%%% ..###xjj%%%o.osss333OOO:::",
"*%*@O@333sss@@@000%%%...###jlj%%%ooosss353OOO:-:",
"rrto.o233O++NNNNNN000***$$$===yyywww+++544@@Xhkh",
"0rrooo337O++NNNNNN0w0***=$$=;=yyywww+++444@@@hhh",
"rrroo#333+++NNNNNN000**&$$%=;-yyyw0w+++448@@@hhh",
"+++555iai###xxxvvvhhhkkkyyyyyyIIITTT###ggg444XXX",
"+++555iii###xxxvvvhhhkkkyyyyyyIIITTT###fgs444XXX",
"+++555iai###xxxlvvhhhkkkyyyyyyIIITTT##oggg444XXX",
"O+.444iiiOOOvvvzzzkklcccrrtRYRCCCnnnXooddi777+OO",
"+++444iiiOOOvvvzzzkhkczcryrRRRMCCnnnoooddd777OOO",
"+++428iai+OOvvczzzkkkkccrrrRRRCCVnnboooddd777OO ",
"+++666...hhhhhhhhhxvx$$$r00MMmVVVhhhxxxOOO777   ",
"+++662...hhhhhhhhhxxx$$$000CnMmVVhhhxxxOOO777.  ",
"+#+666..+hhhzhhzhjxxx$$$000MnMVVVhhhxxxOOO777  O",
"MMM+++GGGFFFSSSHHHGGGGJGAAAZZZFFFGGGSSSHFH..+PTT",
"MnM+#+GGGFFFSSHJHHGJGGGGADAZZZFFFGGGSSSHHH...TTT",
"MnM+++GGGFFFSSSHHHGGGGGGAAAAZZFFFGGGSSSHHH...TTT"
};
