/* XPM */
static char *_4a710604d5347bb8349efecccf2de99QdeR30bPzOmHkH8i[] = {
/* columns rows colors chars-per-pixel */
"48 48 11 1 ",
"  c #000101",
". c #464746",
"X c #5D5A5A",
"o c #9D5A3C",
"O c #67FE01",
"+ c #E4AA7B",
"@ c #8F8E8E",
"# c #B4B4B5",
"$ c #F5E59D",
"% c #E6E7E6",
"& c #FFFEFF",
/* pixels */
"###         %%%%%%%%%%%%###OOO@@@@@@OOO%%%%%%###",
"###         %%%%%%%%%%%%###OOO@@@@@@OOO%%%%%%###",
"###         %%%%%%%%%%%%###OOO@@@@@@OOO%%%%%%###",
"   ooooooooo      ######@@@@@@OOOOOO%%%#########",
"   ooooooooo      ######@@@@@@OOOOOO%%%#########",
"   ooooooooo      ######@@@@@@OOOOOO%%%#########",
"$$$   ++++++oooooo      @@@@@@@@@OOO...###@@@@@@",
"$$$   ++++++oooooo      @@@@@@@@@OOO...###@@@@@@",
"$$$   ++++++oooooo      @@@@@@@@@OOO...###@@@@@@",
"$$$OOO         +++oooooo      ...OOOOOO...@@@@@@",
"$$$OOO         +++oooooo      ...OOOOOO...@@@@@@",
"$$$OOO         +++oooooo      ...OOOOOO...@@@@@@",
"$$$OOOOOOOOO...      +++oooooo   OOOOOOOOO......",
"$$$OOOOOOOOO...      +++oooooo   OOOOOOOOO......",
"$$$OOOOOOOOO...      +++oooooo   OOOOOOOOO......",
"$$$%%%%%%###OOO......   +++oooooo   ###OOOOOOOOO",
"$$$%%%%%%###OOO......   +++oooooo   ###OOOOOOOOO",
"$$$%%%%%%###OOO......   +++oooooo   ###OOOOOOOOO",
"$$$###   @@@###OOO   +++oooooo   ######   OOO%%%",
"$$$###   @@@###OOO   +++oooooo   ######   OOO%%%",
"$$$###   @@@###OOO   +++oooooo   ######   OOO%%%",
"$$$   &&&oooooo   +++oooooo   ooooooooo...   ###",
"$$$   &&&oooooo   +++oooooo   ooooooooo...   ###",
"$$$   &&&oooooo   +++oooooo   ooooooooo...   ###",
"$$$   &&&oooooo   +++oooooo   ooooooooo...   @@@",
"$$$   &&&oooooo   +++oooooo   ooooooooo...   @@@",
"$$$   &&&oooooo   +++oooooo   ooooooooo...   @@@",
"$$$...   OOOOOOOOO   +++oooooo   ...OOO   ...@@@",
"$$$...   OOOOOOOOO   +++oooooo   ...OOO   ...@@@",
"$$$...   OOOOOOOOO   +++oooooo   ...OOO   ...@@@",
"$$$OOOOOO%%%###OOO...   +++oooooo   OOOOOOOOO...",
"$$$OOOOOO%%%###OOO...   +++oooooo   OOOOOOOOO...",
"$$$OOOOOO%%%###OOO...   +++oooooo   OOOOOOOOO...",
"$$$OOO%%%######      +++oooooo   OOO%%%######@@@",
"$$$OOO%%%######      +++oooooo   OOO%%%######@@@",
"$$$OOO%%%######      +++oooooo   OOO%%%######@@@",
"$$$%%%         +++oooooo      %%%%%%######@@@XXX",
"$$$%%%         +++oooooo      %%%%%%######@@@XXX",
"$$$%%%         +++oooooo      %%%%%%######@@@XXX",
"$$$   ++++++oooooo      OOO%%%######@@@@@@XXX...",
"$$$   ++++++oooooo      OOO%%%######@@@@@@XXX...",
"$$$   ++++++oooooo      OOO%%%######@@@@@@XXX...",
"   ooooooooo      @@@...OOO######@@@@@@XXX...OOO",
"   ooooooooo      @@@...OOO######@@@@@@XXX...OOO",
"   ooooooooo      @@@...OOO######@@@@@@XXX...OOO",
"###         .........OOOOOO...@@@@@@XXX...%%%%%%",
"###         .........OOOOOO...@@@@@@XXX...%%%%%%",
"###         .........OOOOOO...@@@@@@XXX...%%%%%%"
};
