/* XPM */
static char *result[] = {
/* columns rows colors chars-per-pixel */
"48 48 75 1 ",
"  c black",
". c #010000",
"X c #000100",
"o c #010100",
"O c #000001",
"+ c #010001",
"@ c #000101",
"# c #010101",
"$ c #464646",
"% c #474646",
"& c #464746",
"* c #474746",
"= c #464647",
"- c #474647",
"; c #464747",
": c gray28",
"> c #5D5A5A",
", c #5C5B5A",
"< c #5D5B5A",
"1 c #5D5A5B",
"2 c #9C5A3C",
"3 c #9D5A3C",
"4 c #9C5B3C",
"5 c #9D5B3C",
"6 c #9C5A3D",
"7 c #9D5A3D",
"8 c #9C5B3D",
"9 c #9D5B3D",
"0 c #66FE00",
"q c #67FE00",
"w c #66FF00",
"e c #67FF00",
"r c #66FE01",
"t c #67FE01",
"y c #66FF01",
"u c #67FF01",
"i c #E4AA7A",
"p c #E5AA7A",
"a c #E4AB7A",
"s c #E5AB7A",
"d c #E4AA7B",
"f c #E4AB7B",
"g c #E5AB7B",
"h c #8E8E8E",
"j c #8F8E8E",
"k c #8E8F8E",
"l c #8F8F8E",
"z c #8E8E8F",
"x c #8F8E8F",
"c c #8E8F8F",
"v c gray56",
"b c #B4B4B4",
"n c #B5B4B4",
"m c #B4B5B4",
"M c #B5B5B4",
"N c #B4B4B5",
"B c #B5B4B5",
"V c #B4B5B5",
"C c gray71",
"Z c #F4E49C",
"A c #F5E49C",
"S c #F4E59C",
"D c #F5E59C",
"F c #F4E49D",
"G c #F5E49D",
"H c #F4E59D",
"J c #F5E59D",
"K c #E6E6E6",
"L c #E7E6E6",
"P c #E6E7E6",
"I c #E7E7E6",
"U c #E6E6E7",
"Y c #E7E6E7",
"T c #E6E7E7",
"R c #E7E7E7",
/* pixels */
"NNNbbbrrrrrrUUURRRPPPKKKmmmeeehhhcccXXXOO   ObNB",
"NNNbbbrrrrrrUUURRRTPPKKKmmmeeezhhcccXXXOOO   bNB",
"NNNbbbrrtrrrUUURRRPPPKKKmmMeeehhhcccXXX+OO . NVN",
"kkkcccqqqKKKBBBMMMBBBNbbjjjlllOOOX@@444777777+..",
"kkkcccqq0UKLBBBMMMBBBbmbjjjlllOOO@@@444777777...",
"kkkcccqqqKKLBBBMMMBBBbmbjjjlllOOO@@@444777777...",
"vvv>>>qqqKKKNNNVVVlvvlxvOOOOOO333448gsgiddOOOHHH",
"vvv1>>qqqKKKNNNVVVvvvvxvOOO@OO335444gggdddOOOFHH",
"vvv><>qqqKKKNNNVNVlxvvxvOOOOOO333544gfgdddOOOHHH",
"<<,tttyyymmMccclvv###OO 555777sss+++##ooookkkSSS",
"<<<tttyyymmmcccvvv###OOO355777sss+++###oookkkSSS",
"<<<qutyyymmmcccvvv###+O+545777sss+++###XookkkSSS",
"rrrueewwwuuu&;;@X@777333ppp+++ooorrrw0wttt&&&GGG",
"ryteewwwwuuu;=;@@@977355spp+++o.orrrwwwtut&&&GGG",
"rrreeeywwuuu;;:#@#777333ppp+++ooorrrwwwttr&&&GGG",
"uuuPPPTPPbbb...262666iii   wwwRRRPPPCCCwyyuuuFFF",
"uuuPKPPPPNbbo..222666iii   wwwRRRPPICCVyyuuuuFFF",
"euuPPPPPPNbb...222666iii.  ywwRRRPPPCCCyyyuuyFFF",
"RIIbbnVVVxxxmmmooo222844ddd   MMMVVVbbbNNNyyuZZZ",
"ILIbbbVNVxxxmmmooo222444ddd   MMMVVVbbbNNNyyyZZZ",
"RIIbbbVVVxxzmmmooo323444ddd   MMMVVVbbnNNNyyyZZA",
"Nbnnnnjjhhhh===uuu@@@773444ggg###vvvhkh===YYYAAA",
"bbbnnnjjhhhh==-uuu@@@797442ggg###vxvhhh$==YYYADA",
"Nbbnnnjjhhhj$==uuy@@@777444ggg###vvvhhh==-LYYAAA",
"ccczzzkkk***yry000   999222ffa...ccv&&&r00jjjGGG",
"ccczczkkk***yyy000   999222ffd...ccc&&&000jjjJGG",
"ccczczkkk***yyy000   989222fff. .ccc&&&000xjjGGG",
"zzz---&&&qutqqqXXX666555aaaOOOvvv---uuuttr:::GGG",
"zzz---&&&tttqqqX X666555aaaOOOvxv%--uuuttt:::GJG",
"zzz---&&&tttqqqoXX666555aaaOOOvxv---uuyttt::;GGG",
"***000yyyKKKXXX662337aaf+++jjj%%%yyyutueew000HHH",
"***000yruKKKXXX666333aaa+++xjj%%%yyyuuuuew0w0HHH",
"*%*000yyuUPKXXX666333aaaO++jlj%%%yyyuuueee000HJH",
"rrteewTTTmmmNNN.+.888262sgs...@@@wwwUUYnnnNNNSHS",
"0rrueeTTTmmmNNN...888222sss...@@@wwwUUUnnnNNNSSS",
"rrrueePUTmmmNNN...888222sss...#@@w0wUTUnnbbNBSSS",
"ttrIIPbbbnnnxxxvvvXXX   955888sss+++###OOOhhhFFF",
"tutIIIbbnnnnxxxvvvXXX   535868sss+++###OOOhhhFFF",
"tttIIIbbbBnnxxxlvvXXX   555888assOO+###OO+hhhFFF",
"eeeYYYnnnlvvvvvzzzkklcccXXX@@@333373iiiiii..+GGG",
"ueeLYYnnnvvvvvvzzzkhkczcX X@@@333333aiaiia...GGG",
"eeeYYYnnblxvvvczzzkkkkccXoX@@@333233iiiiii...GGG",
"w0wrrrjjjhhhhhhhhhxvx$$$r00MMm@@@oo#555448626+++",
"yww0rrjjjhhhhhhhhhxxx$$$000CnM@@O.oo555442666+#+",
"wwwrrrjjjhhhzhhzhjxxx$$$000MnM@@@ooo555444666+++",
"MMMuuu:-:&;;$$$******yyy0rt&&*kkkzzz+++.+++++PTT",
"MnMuuy:::;;;$$$******yyurrr&&*kkkzzz++++++++#TTT",
"MnMuuu:::;;;=$$****%*yyu0rr&&&kkkzzz+++O+++++TTT"
};
