/* XPM */
static char *result[] = {
/* columns rows colors chars-per-pixel */
"48 48 75 1 ",
"  c black",
". c #010000",
"X c #000100",
"o c #010100",
"O c #000001",
"+ c #010001",
"@ c #000101",
"# c #010101",
"$ c #464646",
"% c #474646",
"& c #464746",
"* c #474746",
"= c #464647",
"- c #474647",
"; c #464747",
": c gray28",
"> c #5C5A5A",
", c #5D5A5A",
"< c #5D5B5A",
"1 c #5D5A5B",
"2 c #5D5B5B",
"3 c #9C5A3C",
"4 c #9D5A3C",
"5 c #9C5B3C",
"6 c #9D5B3C",
"7 c #9C5A3D",
"8 c #9D5A3D",
"9 c #9C5B3D",
"0 c #9D5B3D",
"q c #66FE00",
"w c #66FF00",
"e c #67FF00",
"r c #66FE01",
"t c #67FE01",
"y c #66FF01",
"u c #67FF01",
"i c #E4AA7A",
"p c #E5AA7A",
"a c #E4AB7A",
"s c #E5AB7A",
"d c #E4AA7B",
"f c #E4AB7B",
"g c #E5AB7B",
"h c #8E8E8E",
"j c #8F8E8E",
"k c #8E8F8E",
"l c #8F8F8E",
"z c #8E8E8F",
"x c #8F8E8F",
"c c #8E8F8F",
"v c gray56",
"b c #B4B4B4",
"n c #B5B4B4",
"m c #B4B5B4",
"M c #B5B5B4",
"N c #B4B4B5",
"B c #B5B4B5",
"V c #B4B5B5",
"C c gray71",
"Z c #F4E49C",
"A c #F5E49C",
"S c #F4E59C",
"D c #F5E59C",
"F c #F4E49D",
"G c #F5E49D",
"H c #F4E59D",
"J c #F5E59D",
"K c #E6E6E6",
"L c #E7E6E6",
"P c #E6E7E6",
"I c #E7E7E6",
"U c #E6E6E7",
"Y c #E7E6E7",
"T c #E6E7E7",
"R c #E7E7E7",
/* pixels */
"NNN...HHHSSSGGGFFFZZAAAAGGGGGGHHHSSSFFFGGG+++bNB",
"NNN...HHHSSSGGGFFFZZZADAGGGGJGHHJHSSFFFGGG+#+bNB",
"NNN+..HFHSSSGGGFFFZZZAAAGJGGGGHHHSSSFFFGGG+++NVN",
"O  888OOOKKKBBBMMMBBBNbbjjjllleeeyyyKKK+..777+#+",
"  .888OOOUKLBBBMMMBBBbmbjjjllleeeyyuKKK...377+++",
"   888OOOKKLBBBMMMBBBbmbjjjllleeeyyyKKK...777+++",
" OO888dddoooNNNVVVlvvlxvlllcccxjjetuOO+iai935+++",
"OOO888dddoooNNNVVVvvvvxvlllcccxjjuuuOOOiii555+++",
"OO+888iddooXNNNVNVlxvvxvvllcccxjjuuuOOOiii555.+O",
"XXX555gggo##ccclvvxxxllkzzzkkk:::tut###iai666+++",
"XXX555sgf###cccvvvxxxlllzzzkkk:::ttt###iii666+++",
"XXX555ggg###cccvvvxvxlllzzzckl:::tut###iai666+++",
"rrr@@@955+++&;;xxxczc&&&$$$;;;rrrrrr+++444#oo;;;",
"ryt@@@555+++;=;xxxccc&&&$$%;;;rrtrrr++O844ooo;;;",
"rrrX@@556+++;;:jxxccc&&&$$$;;;rrrrrr++O443o.o;;;",
"uuuOOO464sssooo===-%%###...wwwRRR@@@sss444@O@euu",
"uuuOOO444ssso.o===%%%###.. wwwRRR@@@sss444@@@uuu",
"euuOOO444sssooo===%%%###...ywwRRR@@#ssa444@@@euu",
"RIIbbnOOO888+++uuu   gggadfOOOMMM...999@@@yyuYYU",
"ILIbbbOOO888+++uuu   gggfffOOOMMM...979@@@yyyYYY",
"RIIbbbO@O888+++uuu   gggfffOOOMMM...999@@@yyyYYY",
"NbnnnnOOO666ppp   ddd535333aaa+++sss666XXXYYYbVN",
"bbbnnnOOO665ppp   ddd555333aaa+++gss646X oYYYNNB",
"NbbnnnOOO646psp  .ddd555333aaa++Osss066XXXLYYbNN",
"ccczzzkkk O+464iii555488000666faa333   rqqjjjlll",
"ccczczkkkOOO464iii555808009666aaa733   qqqjjjlll",
"ccczczkkkOO+444iii955888000666aaa333   qqqxjjlll",
"zzz---&&&###888777334@@@   777844999XXXttr:::jjj",
"zzz---&&&###888777333@@@   777444999XXXttt:::jjj",
"zzz---&&&###808777334@@@   777444999XXXttt::;jjj",
"***qqqyyyKKK@@#333ooovvvzhhXXX377...utueewqqq:::",
"***qqqyruKKKX@@733ooovvvhkjX X777+..uuuuewqwq:::",
"*%*qqqyyuUPK@@#333ooovvvhhhXXo777...uuueeeqqq:-:",
"rrteewTTTmmmNNN...qqq***$$$===XXXwwwUUYnnnNNNhkh",
"qrrueeTTTmmmNNN...qwq***=$$=;=XXXwwwUUUnnnNNNhhh",
"rrrueePUTmmmNNN.o.qqq**&$$%=;-XXXwqwUTUnnbbNBhhh",
"ttrIIPbbbnnnxxxvvvhhhkkkyyyyyyIIITTTCCCmmmhhh,,,",
"tutIIIbbnnnnxxxvvvhhhkkkyyyyyyIIITTTCCCmmMhhh,,,",
"tttIIIbbbBnnxxxlvvhhhkkkyyyyyyIIITTTCCCmmmhhh,,,",
"eeeYYYnnnlvvvvvzzzkklcccrrtRYRCCCnnnhhhccc>>,===",
"ueeLYYnnnvvvvvvzzzkhkczcryrRRRMCCnnnhhhccc>>>===",
"eeeYYYnnblxvvvczzzkkkkccrrrRRRCCVnnbhhhkcc>>>$==",
"wqwrrrjjjhhhhhhhhhxvx$$$rqqMMmVVVhhhxxx111::;ttt",
"ywwqrrjjjhhhhhhhhhxxx$$$qqqCnMmVVhhhxxx111::;ttt",
"wwwrrrjjjhhhzhhzhjxxx$$$qqqMnMVVVhhhxxx111:-:tut",
"MMMuuu:-:&;;$$$******yyyqrt&&*kkkzzz<<<---PPPPTT",
"MnMuuy:::;;;$$$******yyurrr&&*kkkzzz2<<---PPPTTT",
"MnMuuu:::;;;=$$****%*yyuqrr&&&kkkzzz<,<---PPPTTT"
};
