/* XPM */
static char *result[] = {
/* columns rows colors chars-per-pixel */
"48 48 66 1 ",
"  c #003C10",
". c #013C10",
"X c #003D10",
"o c #013D10",
"O c #003C11",
"+ c #013C11",
"@ c #003D11",
"# c #013D11",
"$ c #007A22",
"% c #017A22",
"& c #007B22",
"* c #017B22",
"= c #007A23",
"- c #017A23",
"; c #007B23",
": c #017B23",
"> c #464747",
", c #5D5A5A",
"< c #5C5B5A",
"1 c #5D5B5A",
"2 c #5D5A5B",
"3 c #66FE00",
"4 c #67FE00",
"5 c #67FF00",
"6 c #66FE01",
"7 c #67FE01",
"8 c #66FF01",
"9 c #67FF01",
"0 c #22B04C",
"q c #23B04C",
"w c #22B14C",
"e c #23B14C",
"r c #22B04D",
"t c #23B04D",
"y c #22B14D",
"u c #23B14D",
"i c #A8E61C",
"p c #A9E61C",
"a c #A8E71C",
"s c #A9E71C",
"d c #A8E61D",
"f c #A9E61D",
"g c #A8E71D",
"h c #A9E71D",
"j c #8F8E8E",
"k c #8E8F8E",
"l c #8F8F8E",
"z c #8E8E8F",
"x c #8E8F8F",
"c c gray56",
"v c #B4B4B4",
"b c #B5B4B4",
"n c #B4B5B4",
"m c #B5B5B4",
"M c #B4B4B5",
"N c #B5B4B5",
"B c #B4B5B5",
"V c gray71",
"C c #E6E6E6",
"Z c #E7E6E6",
"A c #E6E7E6",
"S c #E7E7E6",
"D c #E6E6E7",
"F c #E7E6E7",
"G c #E6E7E7",
"H c #E7E7E7",
/* pixels */
"MMMvvv666---&&&$$$-:-CCCnnn$$$%%%***$$$ZZZFFFvMN",
"MMMvvv666---&&&$$$---CCCnnn$$$%%%***$$$FZZZFFvMN",
"MMMvvv667---&&;$$$=--CCCnnm$&$%%%***$$$ZZZFFFMBM",
"kkkxxx444%%%fffiiipppO++OOOasssssddd;;;mmmVVVnvm",
"kkkxxx443%%%fffiiippp+++OOOssssssddd;;;VmnVVVnnn",
"kkkxxx444%%%fffiiippp+++OOOssssssfgd;;;mbmVVVnnn",
"ccc,,,=--&$&&&&XXXiiigggdddhhh...==$:::&&&xxcjjj",
"ccc2,,=--&&&&&&XXXiiigdadddhhh...===:::&$&xxxjjj",
"ccc,1,---&&&&&&XXXiiihggdgdhhh ..==$:::&&&xxxjjj",
"11<%%%dddfhfrttweetttfffssswwwwwwutuiaiggg$$$kkk",
"111$%-ddddfftuteeetttfffsshewww0wuuuiidggg$$$kkl",
"111%%%dddffftuteeetttdffsssw0wwwwuuuiiiggg$$$xkk",
"666===fff000###iiisssyyytttiiiiii##owwwfff--->>>",
"687===fff000###iaisshyyytttiaiiii###wwwdff--->>>",
"666===fff000##opiisssyyytutiaiiii###wwwfff--->>>",
"999AAA#+#+OOfhpdffeee-:-$$$qqqffpsps@@@.  999599",
"999ACA#+#OOOffffffwee---$$$qqqfhfsss@@X   999999",
"599AAA###+OOffffffeee-:-$$$qqqfffsps@O@   998599",
"HSS#O@pppfffrr0uuugggyyy0w0iiiyyyeeeipphhh###FFD",
"SZS#@@pppfffryruuugggyyy000iaiyyweeeppphhh#+#FFF",
"HSS#O@pspfffrrruuugdgyyy000iiiyyyeeeppphhh@##FFF",
"Mvb...fhf000pppXXXgggttt000gggOOOppprrraps+++vBM",
"vvv...fff000pppXXXgggrtt000gggOOOppprr0sss+#+MMN",
"Mvv...ffp000ppfXXXgggttt00rggaOOOppprrrsss+++vMM",
"xxx+++hhhhhhfdd#+#aaadffggghhh@@@hhhfhfiii...lll",
"xxx+++hhhhhhddd###aagfffggghhh@@@hhhfffiii.o.lll",
"xxx+++hhhhhhddd###aaadhfggghhs@@@ghhfffiii...lll",
"zzzoo#+++@##@@@ggg@@@ggggggO++dgd X    ooo###jjj",
"zzzooo+#+@#o#@@ggg@@@gggggg+++ddd      ooo#+#jjj",
"zzzooo+++###@@@ggg@O@gggggg++.ddd      ooo###jjj",
"ooossspppoXXfffe0w###dffpppXXXtr0pppXXXfffpppoo#",
"ooosssispXXXfhfwwy###fffpppX XryrpppXXXfhppspooo",
"o.ossspppXXXffpwww#+#fffpppXXXrrrpppXXXfffippooo",
"...fff+OOggghhhqqqyyw#@@XXXuuu000sssaaa#+#aaa+++",
"...fhfOOOggghhhqqqyyy@@@XXXyue000sssaia###aaa+++",
" ..fff+OOgdghhhqqqyyy@@@XXXuuu000sssaaa##oaaa+++",
"776O@Oppfiii000hhheeeqqqtttyyyiiiutufffddd@@@,,,",
"797OOOpppiii00rhhheeeqeqtttyyyiiiuuufhfddd#O@,,,",
"777OOOippiii000hhheeeqqqrttyyyiiiuuufffddd@@@,,,",
"@OXaiafhfXXXiiigdg   aagfhpXoosssfff++.hhhssh ..",
"#@@aaafffXXXiiiggg   aaafffXoosssfff+++hhsssh...",
"@@@aaafffXXXiiiggg.  aaafffXo#sssfff+++hhhsss...",
"@@@ppp@@@sssddi###X Xiiiggg++++#+fffhhh++.ddd...",
"@@@ppp@@@sssddd###XXXiiiggg++++#+dffhhh+++ddd ..",
"#@@ppp#@@sssddi###XXXpaiggg++.+++dffghh+++ddd...",
"mmm   ###dddgggOOOOO iiifffXXXooosssashOOO@@@AGG",
"mbm  O###dddgggO@OOOOiiifffXXXooossssshOOO#@@GGG",
"mbm   ##oddigggOOOO@OiiidffXXXooossssssOOO#@@GGG"
};
