/* XPM */
static char *result[] = {
/* columns rows colors chars-per-pixel */
"48 48 46 1 ",
"  c #464646",
". c #474646",
"X c #464746",
"o c #474746",
"O c #464647",
"+ c #474647",
"@ c #464747",
"# c gray28",
"$ c #5C5A5A",
"% c #5D5A5A",
"& c #5C5B5A",
"* c #5D5B5A",
"= c #5D5A5B",
"- c #5D5B5B",
"; c #66FE00",
": c #67FE00",
"> c #66FF00",
", c #67FF00",
"< c #66FE01",
"1 c #67FE01",
"2 c #66FF01",
"3 c #67FF01",
"4 c #8E8E8E",
"5 c #8F8E8E",
"6 c #8E8F8E",
"7 c #8F8F8E",
"8 c #8E8E8F",
"9 c #8F8E8F",
"0 c #8E8F8F",
"q c gray56",
"w c #B4B4B4",
"e c #B5B4B4",
"r c #B4B5B4",
"t c #B5B5B4",
"y c #B4B4B5",
"u c #B5B4B5",
"i c #B4B5B5",
"p c gray71",
"a c #E6E6E6",
"s c #E7E6E6",
"d c #E6E7E6",
"f c #E7E7E6",
"g c #E6E6E7",
"h c #E7E6E7",
"j c #E6E7E7",
"k c #E7E7E7",
/* pixels */
"yyywww<<<<<<gggkkkdddaaarrr,,,444000:::ssshhhwyu",
"yyywww<<<<<<gggkkkjddaaarrr,,,844000:,:hssshhwyu",
"yyywww<<1<<<gggkkkdddaaarrt,,,444000:,:ssshhhyiy",
"666000:::aaauuutttuuuyww555777,,,222aaatttppprwt",
"666000::;gasuuutttuuuwrw555777,,,223aaaptrppprrr",
"666000:::aasuuutttuuuwrw555777,,,222aaatetppprrr",
"qqq%%%:::aaayyyiii7qq79q777000955,13XXXyyy00q555",
"qqq=%%:::aaayyyiiiqqqq9q777000955333XXXyyy000555",
"qqq%*%:::aaayyyiyi79qq9qq77000955333XXXyyy000555",
"**&111222rrt0007qq999776888666###131;;;OOO666666",
"***111222rrr000qqq999777888666###111;;;OO+666667",
"***:31222rrr000qqq9q9777888067###131;;;OO+666066",
"<<<3,,>>>333X@@999080XXX   @@@<<<<<<>;>111XXX@@@",
"<21,,>>>>333@O@999000XXX  .@@@<<1<<<>>>131XXX@@@",
"<<<,,,2>>333@@#599000XXX   @@@<<<<<<>>>11<XXX@@@",
"333dddjddwww3:,OOO+..;;;2<3>>>kkkdddppp>22333,33",
"333daddddyww,,,OOO...;;;>22>>>kkkddfppi223333333",
",33ddddddyww,,,OOO...<;;2222>>kkkdddppp222332,33",
"kffwweiii999rrr333>>>;>:sssssstttiiiwwwyyy223hhg",
"fsfwwwiyi999rrr333>>>;;;sfsssstttiiiwwwyyy222hhh",
"kffwwwiii998rrr333>>>;;;ssssfstttiiiwweyyy222hhh",
"yweeee554444OOO333,,,dddtttppprrrqqq464OOOhhhwiy",
"wwweee554444OO+333,,>dddttrppirrrq9q444 OOhhhyyu",
"ywweee554445 OO332,:,dddtttppprrrqqq444OO+shhwyy",
"000888666ooo2<2;;;sssttryiy66677700qXXX<;;555777",
"000808666ooo222;;;sfstttyyy666777000XXX;;;555777",
"000808666ooo222;;;ssspttyyy067777000XXX;;;955777",
"888+++XXX:31:::>>>eew888666777qqq+++33311<###555",
"888+++XXX111:::2>>eee888666777q9q.++333111###555",
"888+++XXX111:::>>>eee888666777q9q+++332111##@555",
"ooo;;;222aaappp;;;...qqq844555...222313,,>;;;###",
"ooo;;;2<3aaappi;;;...qqq465955...2223333,>;>;###",
"o.o;;;223gdatpp;;;...qqq444575...222333,,,;;;#+#",
"<<1,,>jjjrrryyyyyy;;;ooo   OOO222>>>ggheeeyyy464",
";<<3,,jjjrrryyyyyy;>;oooO  O@O222>>>gggeeeyyy444",
"<<<3,,dgjrrryyyyyy;;;ooX  .O@+222>;>gjgeewwyu444",
"11<ffdwwweee999qqq444666222222fffjjjppprrr444%%%",
"131fffwweeee999qqq444666222222fffjjjppprrt444%%%",
"111fffwwwuee9997qq444666222222fffjjjppprrr444%%%",
",,,hhheee7qqqqq888667000<<1khkpppeee444000$$%OOO",
"3,,shheeeqqqqqq888646080<2<kkktppeee444000$$$OOO",
",,,hhheew79qqq0888666600<<<kkkppieew444600$$$ OO",
">;><<<5554444444449q9   <;;ttriii444999===##@111",
"2>>;<<555444444444999   ;;;petrii444999===##@111",
">>><<<555444844845999   ;;;tetiii444999===#+#131",
"ttt333#+#X@@   oooooo222;<1XXo666888***+++ddddjj",
"tet332###@@@   oooooo223<<<XXo666888-**+++dddjjj",
"tet333###@@@O  oooo.o223;<<XXX666888*%*+++dddjjj"
};
