/* XPM */
static char *result[] = {
/* columns rows colors chars-per-pixel */
"48 48 82 1 ",
"  c black",
". c #010000",
"X c #000100",
"o c #010100",
"O c #000001",
"+ c #010001",
"@ c #000101",
"# c #010101",
"$ c #464646",
"% c #474646",
"& c #464746",
"* c #474746",
"= c #464647",
"- c #474647",
"; c #464747",
": c gray28",
"> c #5C5A5A",
", c #5D5A5A",
"< c #5C5B5A",
"1 c #5D5B5A",
"2 c #5D5A5B",
"3 c #5D5B5B",
"4 c #9C5A3C",
"5 c #9C5B3C",
"6 c #9C5A3D",
"7 c #9C5B3D",
"8 c #9D5B3D",
"9 c #FE7E00",
"0 c #FF7E00",
"q c #FE7F00",
"w c #FF7F00",
"e c #FE7E01",
"r c #FF7E01",
"t c #FE7F01",
"y c #FF7F01",
"u c #66FE00",
"i c #67FE00",
"p c #66FF00",
"a c #67FF00",
"s c #66FE01",
"d c #67FE01",
"f c #66FF01",
"g c #67FF01",
"h c #FEF200",
"j c #FFF200",
"k c #FEF300",
"l c #FFF300",
"z c #FEF201",
"x c #FFF201",
"c c #FEF301",
"v c #FFF301",
"b c #8E8E8E",
"n c #8F8E8E",
"m c #8E8F8E",
"M c #8F8F8E",
"N c #8E8E8F",
"B c #8F8E8F",
"V c #8E8F8F",
"C c gray56",
"Z c #B4B4B4",
"A c #B5B4B4",
"S c #B4B5B4",
"D c #B5B5B4",
"F c #B4B4B5",
"G c #B5B4B5",
"H c #B4B5B5",
"J c gray71",
"K c #E6E6E6",
"L c #E7E6E6",
"P c #E6E7E6",
"I c #E7E7E6",
"U c #E6E6E7",
"Y c #E7E6E7",
"T c #E6E7E7",
"R c #E7E7E7",
"E c #FEFEFE",
"W c #FFFEFE",
"Q c #FEFFFE",
"! c #FFFFFE",
"~ c #FEFEFF",
"^ c #FEFFFF",
"/ c white",
/* pixels */
"FFFZZZssssssUUURRRPPPKKKSSSooobbbVVViiiLLLYYYZFG",
"FFFZZZssssssUUURRRTPPKKKSSSoooNbbVVViaiYLLLYYZFG",
"FFFZZZssdsssUUURRRPPPKKKSSDooobbbVVViaiLLLYYYFHF",
"mmmVVViiiKKKGGGDDDGGGFZZ...O@OaaafffKKKDDDJJJSZD",
"mmmVVViiuUKLGGGDDDGGGZSZ...OOOaaaffgKKKJDSJJJSSS",
"mmmVVViiiKKLGGGDDDGGGZSZ...OOOaaafffKKKDADJJJSSS",
"CCC,,,iiiKKKFFFHHHMCCMBCOO VVVBnnadg&&&FFFVVCnnn",
"CCC2,,iiiKKKFFFHHHCCCCBCOOOVVVBnnggg&&&FFFVVVnnn",
"CCC,1,iiiKKKFFFHFHMBCCBCOO VVVBnnggg&&&FFFVVVnnn",
"11<dddfffSSDVVVMCC@@@XXX@## X :::dgduuu===mmmmmm",
"111dddfffSSSVVVCCC@@@oXX###   :::ddduuu==-mmmmmM",
"111igdfffSSSVVVCCC@@@XXX###.X :::dgduuu==-mmmVmm",
"sssgaapppgggXXX...jjj444777000XXX@@@pupddd&&&;;;",
"sfdaappppgggXXX...jjj446875000XXX@@@pppdgd&&&;;;",
"sssaaafppgggXXX...jjj444877000XXX@@@pppdds&&&;;;",
"gggPPPTPP@@@jjjhhhhhhzzz0w0lllqww999XXXpffgggagg",
"gggPKPPPP@@@hjjhhhhhhzzz000lllwwy999XXXffggggggg",
"aggPPPPPP@@Xjjjhhhhhhzzz000lllwww999X @fffggfagg",
"RIIZZAHHH   hhh///EEEhkhlllkkkjjxqqq@@@FFFffgYYU",
"ILIZZZHFH   hhh///EEEhhzlllkkkjjxqqq@@@FFFfffYYY",
"RIIZZZHHH   hhh///EEEhhhllllhkjljqqq@@@FFFfffYYY",
"FZAAAA+++lll~~~!!!lkcvxlzzzhhhjjxqqqyyy+++YYYZHF",
"ZZZAAA+++llv~~~!!!kkkvxvzczhkhjjjqqqtyy++.YYYFFG",
"FZZAAAO++lll~~~!!!kkkvvvzzzhhhjjjq9qyyy+++LYYZFF",
"VVVNNNXXXccc!!!QQ^xzzhhhhhhkkkhhh999ttt++.nnnMMM",
"VVVNVNXXXcccQ!!QQQzzzhhhhhhkkkhhh999ttt++.nnnMMM",
"VVVNVNoXXccc!W!QQQzzzhhhhhzlhkhkz999ttt+++BnnMMM",
"NNN---+++jjjxxxlllxxxkkkxxxjjjjjxqqt999+++:::nnn",
"NNN---+++jjjxxxlllxvxkkkxxjjjjhjjqqq999+++:::nnn",
"NNN---+++jjjxxxljlxxxkkkzxxjjjhjjqqq999+++::;nnn",
"***uuu   hjxkkkvvvkkkkkkxxxccczzh99eqqqXXXuuu:::",
"***uuu X jjjkkkvvvkkkkkkzxxcccxzz999qqqXXXupu:::",
"*%*uuu   jjjkkkvvvkkkkkkxvxczczzz9q9qqqXXXuuu:-:",
"ssdaapTTT@@XqqqcckllvcccvvllllqqqrrrXXXAAAFFFbmb",
"ussgaaTTT@@@qqqccklllcccvvvllvqqqrrrXX@AAAFFFbbb",
"sssgaaPUT#@XwqqccclllcccvvllllqqqrrrX XAAZZFGbbb",
"ddsIIPZZZXXXrrrqqqrrrqqq099999wwwqqq@@@SSSbbb,,,",
"dgdIIIZZAXXXrrrqqqerrqqq999999wwwwqq@@@SSDbbb,,,",
"dddIIIZZZXXXrrrqqqrrrqqq999999wwyqqt#@@SSSbbb,,,",
"aaaYYYAAAMCC@@@www000777666rrrqqq   bbbVVV>>,===",
"gaaLYYAAACCC@@@www000877666errqqq   bbbVVV>>>===",
"aaaYYYAAZMBC@@@www00r877676rrrqqq   bbbmVV>>>$==",
"pupsssnnnbbbbbb###@@@$$$suuoooOOObbbBBB222::;ddd",
"fppussnnnbbbbbb###@@@$$$uuuoooOOObbbBBB222::;ddd",
"pppsssnnnbbbNbb###@@@$$$uuuoooOOObbbBBB222:-:dgd",
"DDDggg:-:&;;$$$******fffusd&&*mmmNNN111---PPPPTT",
"DADggf:::;;;$$$******ffgsss&&*mmmNNN311---PPPTTT",
"DADggg:::;;;=$$****%*ffguss&&&mmmNNN1,1---PPPTTT"
};
