/* XPM */
static char *result[] = {
/* columns rows colors chars-per-pixel */
"406 46 25 1 ",
"  c black",
". c #70141A",
"X c #71141A",
"o c #70151A",
"O c #71151A",
"+ c #70141B",
"@ c #71141B",
"# c #70151B",
"$ c #71151B",
"% c #B41C24",
"& c #B51C24",
"* c #B41D24",
"= c #B51D24",
"- c #B41C25",
"; c #B51C25",
": c #B41D25",
"> c #B51D25",
", c #EC1C24",
"< c #ED1C24",
"1 c #EC1D24",
"2 c #ED1D24",
"3 c #EC1C25",
"4 c #ED1C25",
"5 c #EC1D25",
"6 c #ED1D25",
/* pixels */
"           ;;;:::>>>;;;******;;;                     ***>>>>>>>>>;;;===>>>>>>***               >>>>>>>>>>>>>>>:>>>>>      $$$OOO####+####      :::;;;***===>>>===***;;;>>>OOO+++$$$$$$                        :::;;;:::###+++$$$               ===:::;;;***>>>>>>      ###oooOOO@++ooo###      >>=>>>===>>>;;;======;;;>;>OOO#########         ;;;>>>:::;;;>>>>>>>>>ooo$$O###OOO$$$            ::::>>>>>>;>>>>>>>ooo  ",
"        >>>>>><<<,,,<<<333<<<>>>:::                  :::;;;>>>***;;;>;>===;;;===OOO+++         ===>>>;;;<<<,,,<<<===***###ooo<<<222,,,$$$      ===>>>***:::;;;***:::>>>ooo$@$######ooo                     ===>>>;;;$$$###+++######            ===>>>;;;**::::;;;      +++ooo######OOO$$$+++   >>>>>>>>>***>>>::*:::>>>oooOOO###ooo$$$         ;;;333<<<222444,,,222444333222333ooo###         >>>>>>>>>>>>>>>########",
"        >>>>>><<<,,,<<<333<<<>>>:-:                  :::;;;>>>***;;;>>>===;;;===OOO+++         ===>>>;;;,<<,,,<<<===***###ooo<<<222,,,$$$      ===>>>***:::;;;***::::>>ooo$$$######ooo                     ===>>>;;;$$$###+++$#####            ===>>>;;;***:::;;;      +++ooo######OOO$$$+++   >>>>>>>>=***>>>::::::>>>oooOOO###ooo$$$         ;;;333<<<222444,,,226444333222333ooo###         >>>>>>>>>>>>>>>########",
"        >>>>>><<<<,,<<<333<<<>>>:::                  :::;;;>>>***;;;>>>===;;;===OOO+++         ===>>>;;;<<<,,,<<<===***###ooo<<<222,,,$$$      ===>>>***:::;;;***:::>>>ooo$$$######ooo                     ===>>>;;;$$$###+++######            ===>>>;;;***:::;;;      +++ooo######OOO$$$+++   >>=>>>>>>**:>>>::::::>>>oooOOO###ooo$$$         ;;;333<<<222444,,,222444333222333ooo###         >>>>>>>>>>>>>>>########",
"     ***:::<<<<<<333<<<,,,444<<<===***         >>>***===>>><<<,,,<<<333333222===$$$+++         ======;;;,,,<<<222<<<OO$###<<<<2<<<<,,,ooo###   >>>;;;444333222333,,,<<<<<<333,<<$$$OOO######            >>>***33,<<<,,,333<<<333ooo###         ***444222444>>>>>>      @++ooo444222###ooo++.   ===;;;444333222333333222,,,333222oooOOO###$$$   >>><<<,,,222>>>>>>+++ooo###<<<<<<ooo###         >>>>>><<<<<<<<4<<<ooo$$",
"     ***:::<<<<<<333<<<,,,444<<<===***         >>>***===>>><<<,,,<<<33,333222===$$$+++         ======;;;,,,<<<222<<<OOO###<<<<<<<<<,,,o.o###   >>>;;;444333222333,,,<<<<<<333<<<$$$OOO$#####            >>>***333<<<,,,333<<<333ooo###         ***444222444>>>>>>      +++ooo444222###ooo+++   ===;;;444333222333353222,,,333222oooOOO###$$$   >>><<<,,,222>>>>>>+++ooo###<<<<<<ooo###         >>>>>><<<<<<<<<<<<ooo$$",
"     ***:::<<<<<<333<<<,,,444<<<===***         >>>***===>>><<<,,,<<<333333222===$$$+++         ======;;;,,,<<<222<<<OOO###<<<<<<<<<,,,ooo###   >>>;;;444333222333,,,<<<<<<333<<<$$$OOO######            >>>***333<<<,,,333<<<333ooo###         ***444222444>>>>>>      +++ooo444222###Ooo+++   ===;;;444333222333333222,,,333226oooOOO###$$$   >>><<<,,,222>>>>>>+++ooo###<<<<<<ooo###         >>>>>><<<<<<<<<<<<ooo$$",
"  >>>===,,,<<<<<<4442223333332<2,,,$$$###      >>>:::***;;;333<<<222,,,464<<<$$$$$$###OOOOOO   ***>>>>>><<<,,,222444,,,<<<444333222444$$$+++   ***;>;<<<444<<<333,,,<<<444433<<<ooo###+++###         :::;;;<<<333<<<444<<<<<<444353+++ooo      ***>>><<<333===;;;      ###OOO<<<222OOOOOO###   ===>>>,,,333222,,,,,,<<<,,,333222$$$$$$+++###   ;;;44433,222>>>OOO+++######226333<<<+++ooo###   >>>>>><<<<<<<<<<<<$$$$$",
"  >>>===,,,<<<<<<444222333333222,,,$$$###      >>>:::***;;;333<<<222,,,444<<<$$$$@$###OOOOOO   ***>>>>>><<<,,,222344,,,<<<444333222444$$$+++   ***;;;<<<444<<<333,,,<<<444333<<<ooo###+++###         :::-;;<<<433<<<444<<<<<<444333+++ooo      ***>>><2<333===;;;      ###OOO<<<222OOOOOO###   ===>>>,,,333222,,,,,,<<<,,,333222$$$$$$+++#+#   ;;;444433222>>>OOO+++######222333<<<+++ooo###   >>>>>><<<<<<<<<<<<$$$$$",
"  >>>===,,,<<<<<<444222333333222,,,$$$###      >>>:::***;;;333<<<222,,,444,<<$$$$$$###OOOOOO   ***>>>>>><<<,,,222444,,,<<<444333222444$$$+++   ***;;;<<<444<<<333,,,,2<444333<<<ooo###+++###         :::;;;,<<333<<<444<<<<<<444333+++ooo      ***>>><<<333===;;;      ###OOO<<<222OOOOOO###   ===>>=,,,333222,,,,,,<<<,1,333222$$$$$$+++###   ;;;444333222>>>OOO+++######222333<<<+++ooo###   >>>>>><<<<<<<<<<<<$$$#$",
"**>>>333444222<2<>>>:>>===444226,,,OOO+++      >>>>>><<<<<<444>>>;;;ooo,,,<<<<,,,,,######$$$   :::>>>>>>333<<<<<<333444<<<,,,,,,<<<<<<$$$###   ===>>>,,,<<<;;;===ooo+++###ooo###OOO###+++###      >>>:::<<<,,,,,,222444<<<<<<,,,<<<222OOO$$$   =====>222,,,>>=;;;>>>===+++###,,,<<<###$$$+++   *==;;;333<<<;;;:::OOO+++#########$$$$$$###OOO   >>>,,,<<<<<<***######OOO###222<<<,,,+++######   >>>>>><<<<<<,,,222###oo",
"**>>>333444222<<<>>>>>>===444222,,,OOO+++      >>>>>><<<<<<444>>>;;;ooo,,3<2<,,,,,,##o###$$$   ::*>>>>>>333<<<<<<333444<<<,,,,,,<<<<<<$@$###   ===>>>,,,<<<;;;===ooo+++###ooo###OOO###+++###      >>>:::<<<,,,,,,222444<<<<<<,,,<<<222OOO$$$   ======222,,,>>>;;;>;>===+++###,,,<<<###$$$+++   ===;;;333<<<;;;:::OOO+++#########$$$$$$###OOO   >>>,,,<<<<<<***######OOO###222<<<,,,+++######   >>>>>><<<<<<,,,222###oo",
"**>>>333444222<<<>>>>>>===444222,,,OOO+++      >>>>>><<<<<<444>>>;;;ooo,,,<<<,,,,,,####+#$@$   :::>>>>>>333<<<,<<333444<<<,,,,,,<<<<<<$$$###   ===>>>,,,<<<;;;===ooo+++###ooo###OOO###+++###      >>>:::<<<,,,,,,222444<<<<<<,,,<<<222OOO$$$   ======222,,,>>>;;;>>>===+++###,,,<<<###$$$+++   ===;;;333<<<;;;:::OOO+++#########$$$$@$###OOO   >>>,,,<<<<<<***######OOO###222<<<,,,+++######   >>>>>><<<<<<,,,222###oo",
"**<<<444333222:::**:;;;OOO###+++oooOOO###      >>=***<<<<<<,,,===######<<<222<<<333###ooo$$$   >>>:::>>>,,,<<<222,,,333222<<<,,,<<<<<<######   ===;;&444333>>>>>=###+++ooo###+++###$$$###OOO   >>>>>>333<<<444444222$$$###<<<444<<<<<<###OOO   ===>>><<<<<<>>>;;;***>>>+++OOO,,,222ooo###+++   >>>;;;333444>>>:::ooo+++#########ooo###+++ooo   >>>444,,,222===###+++,,,,,,<<<444<<<+++###$$$   ::*>>><<<<<<<<<<<<#####",
"**<<<444333222:::***;;;OOO###+++oooOOO###      >>>***<<<<<<,,,=&=######<<<222<<<333###ooo$$$   >>>:::>>>,,3<<<226,,,333222<<<,,,<<<<<<######   ===;;;444333>>>>>>###+++ooo###+++###$$$###OOO   >>>>>>333<2<444444222#$$###<<<444<<<<<<##oOOO   ===>>><<<<<<>>>;;;***>>>+++OO$,,,222ooo###+++   >>>;;;333444>>>:::ooo+++#########oo####+++ooo   :>>444,,,222===###++.,,,,,,<<<444<<<+++###$$$   :::>>><<<<<<<<<<<<####+",
"**<<<444333222:::***;;;OOO###+++oooOOO###      >>>***<<<<<<,,,===######<<<222<<<333###ooo$$$   >>>:::>>>,,,<<<222,,,333222<<<,,,<<<<<<######   ===;;;444333>>>>>>###+++ooo###+++###$$$###OOO   >>>>>>333<<<444444222$$$###<<<444<<<<<<###OOO   ===>>><<<<<<>>>;;;***>>>+++OOO,,,222ooo###+++   >>>;;;333444>>>:::ooo+++#########ooo###+++ooo   >>>444,,,222=&=###+++,,,,,,<<<464<<4+++###$$$   :::>>><<<<<<<<<<<<#####",
"==222444333222***333<<<333333222OOOooo+++      >>>===333222<<4>>>######<<<222<<<444+++###$$$   ::::::;>;333<<<222$$$333<<<ooo444<<<444###+++   >>>;;;444444>>>***###+++ooo###+++$$$######$$$   >>>>>><<<<<<444<<<######$$$###444444222oooooo   ===*==<<<444===;;;===OOO###$$$,,,222$$$######   >>>;;;444<<4>>>>>>$$$######OOO###$$$$$$+++OOO   >>>333<<<222>>>OO$###444<<<+++$$$ooo+++oooooo   >>>>>><<<<<<<,,222###$$",
"==222444333222***333<<<333333222OOOooo+++      >>>===333222<<<>>>######<<<222<<<444+++###$$$   ::::::;;;333<<<222$$$333<<<ooo444<<<444###+++   >>>;;;444444>>>***###+++ooo###+++$$$######$$$   >>>>>><<<<<<444<<<#######$$##o444444222oooooo   ======<<<444===;;;===OOO###$$$,,,222$$$######   >>>;;;444<<<>>>>>>$$$######OOO###$$$$$$+++OOO   >>>433<<<222>>>OOO###444<<<+++$$$ooo+++oooooo   >>>>>><<<<<<,,,222###$$",
"==222444333222***333<<<333333222OOOooo+++      >>>===333222<<<>>>######<<<222<<<444+++###$$$   ::::::;;;333<<<222$$$333<<<ooo444<<<444###+++   >>>;;;444444>>>***###+++ooo$#o+++$$$######$$$   >>>>>><<<<<<444<<<######$$$###444444222oooOoo   ======<<<444===;;;===OOO###$$$,,,222$$$######   >>>;;;444<<<>>>>>>$$$######OOO###$$$$$$+++OOO   >>>333<2<222>>>OOO###444<<<+++$$$ooo+++oooooo   >>>>>><<<<<<,,,222###$$",
"==222,,,333<<<===<<<,<<444333<<<<<<ooo+++      >>>***<<<<<<333333222333,,,222333<<<###OOO###   >>>:::>>>,,,333<<<OOO$$$+++$$$444222,,,$$$++.   :::>>><<<<<<<<<333<<<222<<<<<<222###OOO         ;;;===444<<<,,,<<<+++OOO##o###333333222oooooo   ===>;><<<444***;;;***$$$+++ooo<<<222$$$OOO###   ***>>>444<<<<<<33,,,,222333<<<<<<ooo###         >>><<<333<<<,,,<<<222<<<,,,222OOO###+++ooo###   >>>>>>222444,,,<<<###$$",
"==222,,,333<2<===<<<<<<444333<<<<<<ooo+++      >>>***<<<<<<353333222333,,,222333<<<###OOO###   >>>:::>>>,,,333<<<OOO$$$+++$$$444222,,,$$$+++   :::>>><<<<<<<<<333<<<222<<<<<<222###OOO         ;;;===444<<<,,,<<<+++OOO######333333222oooooo   ===>>><<<444***;;;***$$$+++ooo<<<222$$$OOO###   ***>>>444<<<<<<333,,,222433<2<<<<ooo###         >>><<<333<<<,1,<<<222<<<,,,222OOO###+++ooo###   >>>>>>222444,,,<<<###$$",
"==222,,,333<<<===<<<<<<444333<<<<<<ooo+++      >>>***<<<<<<333333222333,,,222333<<<###OXO###   >>>:::>>>,,,333<<<OOO$$$+++$$$444222,,,$$$+++   :::>>><<<<<<<<<333<<<222<<<<<<222###OOO         ;;;===444<<<,,,<<<+++OOO######333333222oooooo   ===>>><<<44<***;;;***$$$+++ooo<<<222$$$OOO###   ***>>>444<<<<<<333,,,222333<<<<<<ooo$##         >>><<<333<<<,,,<<<222<<<,,,222OOO###+++ooo##o   >>>>>>222444,,,<<<###$$",
"==<<<<<<<<<226oooooo###ooo333<<<444ooo+++      ;;;***,1,<<<<<<,,,<<<444,,,222333,,,######OOO   ======>>>444,,,222######+++OOO333<<<<<<###+++   >>>;;;<<<,,,<<<,,,,,,2<2<<<<<<222###OOO         >>>===444222333<<<###ooo######444333<<<ooo$$$   :::>>><<<<<<:::>>>***ooo+++###,,,<<<ooo$$$###   ===>>=333444<<<333<<<<<<444444222$$$OOO         >>>444,,,<<<###$$$+++o.o,,,<<<<<<###+++OOO$$$   >>>>>>222<<<<<<<<<$$$##",
"==<<<<<<<<<222oooooo###ooo333<<<444ooo+++      ;;;***,,,<<<<<<,,,<<<444,,,222333,,,######OOO   ======:>>444,,,222######+++OOO333<<<<<<###+++   >>>;;;<<<,,,<<<,,,,,,222<<<<<<222#+#OOO         >>>===444122333<<<###ooo######444333<<<ooo$$$   :::>>><<<<<<:::>>>***ooo+++###,,,<<<ooo$$$###   ===>>>333444<<<333<<<<<<44444<222$$$OOO         >>>444,,,<<<###$$$+++ooo,,,<<<<<<###+++OOO$$$   >>>>>>222<<<<<<<<<$$$##",
"==<<<<<<<<<222oo#ooo###ooo333<<<444ooo+++      ;;;***,,,<<<<<<,,,,<<444,,,222333,,,######OOO   ======>>>444,,,222######+++OO$333<<<<<<###+++   >>>;;;<<<,,,<<<,,,,,,222<<<<<<222###OOO         >>>===444222333<<<$##Ooo######444333<<<ooo$$$   :::>>><2<<<<:::>>>***ooo+++#+#,,,,<<ooo$$$###   ===>>>333464<<<333<<<<<<444444222$$$OOO         >>>444,,,<<<###$$$+++ooo,,,<<<<<<###+++OOO$$$   >>>>>>222<<<<<<<<<$$$##",
">><<<<<4333<<<<<<$$$+++ooo###<<<444ooo+++      >>>:::<<<<<<,,,===+++OOO###<<<444<<<+++$##$$$   >>>===>>>333<<<<<<OOOooo+++###,,,<<<444OOO+++   ***;;;<<<333>>>ooo$$$+++oooOOO###ooo$$$         >>>>>>,,,222444333+++ooo$$$###444444222OOO###   ******<<<333===>>>:::OOO###$$$<<<2<2$$$ooo###   >>>>>>444333;;;$$$OOO+++###OOO+++###OOO         ;;;444,,,<2<$$$OOO###Ooo<<<<<<444ooo+++######   :::>>><<<444<<<<<<###$$",
">><<<<<<333<2<<<<$$$+++ooo###<<<444ooo+++      >>>:::<<<<2<,,,===+++OOO###<<<444<<<+++###$$$   >>>===>>>333<<<<<<OOOooo+++###,,3<<<444OOO+++   ***;;;<<<333>>>ooo#$$+++oooOOO###Ooo$$$         >>>>>>,,,222444333+++ooo$$$###444444222OOO###   ******<<<333*==>>>:::OOO###$$$<<<222$$$ooo###   >>>>>>444333;;;$$$OOO+++###OOO+++###oOO         ;;;444,,,<<<$$$oOO###ooo<<<<<<444ooo+++######   :::>>><<<444<<<<<<###$$",
">><<<<<<333<<<<<<$$$+++ooo###<<<444ooo+++      >>>:::<<<<<<,,,===+++OOO###<<<444<<<+++###$$$   >>>===>>>333<<<<<<OOOooo+++###,,,<<<444OOO+++   ***;;;<<<333>>>ooo$$$+++oooOOO###ooo$$$         >>>>>>,,,222444333+++ooo$$$###444444222OOO###   ******<<<333===>>>:::OOO###$$$<<<222$$$ooo###   >>>>>>444333;;;$$$OOO+++###OOO+++###OOO         ;;;444,,,<<<$$$OO$###ooo<<<<<<444ooo+++######   ::*>>><<<444<<<<<<###$$",
"::>>>333<<<222<<<444###OOOooo<<<333ooo+++      ;;;***,,,<<<,,,>>>###ooo$$$222444444+++OOO###   >>>>>>>>>,,,<<<<<<OOO$$$###ooo,,,<<<444$$$###   :::;;;333,,,>>>OOO###+++ooo#########oOO            ===:::222333333222###ooo222444<<<222ooo###   ***===;;;<<<<<<<<<#+#ooo###444,,,############   ::*>>>,,,<<<>>>ooo$$$###OOOOOO+++OOOooo         ;;;444<<<<<<OOO#########$$$+++<<<333222###OOO   >>>>>>222333<<<<<<ooo##",
"::>>>333<<<222<<<444###OOOooo<<<333ooo+++      ;;;***,1,<<<,,,:>>###ooo$$$222444444+++OOO###   >>>>>>>>>,,,<<<<<<OOO$$$###ooo,,,<<<444$$$###   :::;;;333,,,>>>OOO###+++ooo#########OOO            ===:::222333333222###ooo222444<<<222ooo###   ***===;;;<<<<<<<<<###ooo###444,,,############   :::>>>,,,<<<>>>ooo$$$###OOOOOO+++OOOooo         ;;;444<<<<<<OOO#########$$$+++<<<333222###OOO   >>>>>>222333<2<<<<ooo##",
"::>>>333<<<222<<<444###OOOooo<<<333ooo+++      ;;;***,,,<<<,,,>>>###ooo$$$222444444@++OOO###   >>>>>>>>=,,,<<<<<<OOO$$$###ooo,,,<<<444#$$###   :::;;;333,,,>>>OOO###+++Ooo#########OOO            ===:::222333333222###ooo222444<<<222ooo###   ***===;;;<<<<<<<<<###ooo###444,,,############   :::>>>,,,<<<>>>ooo$$$###OOOOOO+++OOOooo         ;;;444<<<<<<OOO#########$$$+++<<<353222###OOO   >>>>>>222333<<<<<<ooo##",
"  >>>:::,,,222444333222333<<<222<<<$$$###      >>>***<,,<<<333***+++OOOooo222,,,<<<+++###ooo   ***:::;;;464333222ooooo####$$$<<<222,1,######   >>>>>>,,,333222,,,333222<<<<<<222ooo###+++ooo      *%*===<<<,,,,,,222<2<444<<<444,1,+++###ooo   ::::::;;;333<<<<<<###$$$+++,,,333+++OOO###+++   ===>>><<<<<<222333444<<<<<<,,,222$$$OOO######   ;;;,,,,,,222oooooo###OOO######444<<<<<<ooo###   :::>>>>>>ooo#+#+++$$$$$",
"  >>>:::<,,222444333222333<<<222<<<$$$###      >;>***,,,<<<333***+++OOOooo222,,,<<<+++###ooo   ***:::;;;444333222oooooo###$$$<<<222,,,######   >>>>>>,,,333222,,,333222<<<<<<222ooo###+++ooo      ***===<<<,,,,,,222<<<444<<<444,,,+#+###ooo   ::::::;;;333<<<<<<###$$$+++,,,333+++OOO###+++   ===>>><<<<<<222333444<<<<<<,1,222$$$OOO######   ;;;,,,,,,222oooooo###OOO######444<<<<<<ooo###   :::>>>>>>ooo###+++$$$$@",
"  >>>:::,,,222444333222333<<<222<<<$$$###      >>>***,,,<<<333***+++OOOooo222,,,<<<+++###ooo   ***:::;;;444333222oooooo###$$$<<<222,,,######   >>>>>>,,,333222,,,333222<<4<<<222ooo###+++ooo      ***=&=<<<,,,,,,2<2<<<444<<<444,,,+++###ooo   ::::::;;;333<<<<<<###$$$+++,,,333+++OOO###+++   ===>>><<<<<<222333444<<<<<<,,,222$$$OOO######   ;;;,,,<,,222oooooo###OOO######344<<<<<<ooo###   :::>>>>>>ooo###+++$$$$$",
"     :::OOO<<<<<<333<<<444<<<222ooo$$$+++      >>>===333222<<<===######$$$222<<<,,,+++###OOO   :::>>>;;;<<<44<222###$$$+++ooo444<<<333OOO+++   >>>>>>:::,,,<<<444<<<222,,,444<<<ooo$$$###ooo         >>>+++464,<<<<<,,,333222444444######         :::;;;******<<<444<<<<<<344###+++ooo$$$      :::>>>***<<<<<<444,,,222444353222OOO#$$###ooo   ;;;:::>>>+#+###$$$+++$$$OOO###oooOOO######$$$   >>>>;><<<<<<<<<<<<#####",
"     :::OOO<<<<<<333<<<444<<<222ooo$$$+++      >>>===433222<<<===######$$$222<<<,,,+++###OOO   :::>>>;;;<<<4442<2###$$$+++ooo444<2<333OOO+++   >>>>>>:::,,,<<<444<<<226,,,444<<<oo#$$$###ooo         >>>+++444<<<<<<,,,3332<2444444######         :::;;;*****:<<<444<<<<<<444###+++ooo$$$      :::>>>***<<<<<<444,,,222444333222OOO$$$###ooo   ;;;:::>>>+++###$$$+++$$$OOO###oooOOO######$$$   >>>>>><<<<<<<<<<<<#####",
"     :::OOO<<<<<<333<<<444<<4222ooo$$$+++      >>>===333222<<<===######$$$222<<<,,,+++###OOO   :::>>>;;;<<<444226###$$$+++ooo444<<<333OOO+++   >>>>>>:::,,,<<<444<<<222,,,44<<<<ooo$$$##oOoo         >>>+++444<<<<<<,1,333222444444######         :::;;;******<<<444<<<<<<444###+++ooo$$$      :::>>>***<<<<<<444,,,222444333222OOO$@$###ooo   ;;;:::>>>+++###$$$+++$$$OOO###oooOOO######$$$   :>>>>><<<<<<<<<<<<#####",
"        ooo+++<<<,,,222333333<<<#########      >>>::::::;;;>>>######oooooo###OOOOOO+++OOOOOO   ***>>>>>>>>=$$$+++###$$$###OOOooo+++###ooo+++   ===>>>::::-:>>>###OOO++.OOOooo############OOO         ===+++###,,,222<<<,,,222333$$$+++###         :::;;;>>>***+++,,,333222ooo###+++$$$         >>>;;;===:::>>>OOOooo############$$$$$$+++OOO   >>>>>>:::###$$$#########ooo+++ooo$$$###ooo###   >>>>>><<<444<<<<<<$$$##",
"        ooo+++<<<,,,222333333<<<#########      >;>::::::;;;>>>######oooooo##oOOOOOO@++OOOOOO   ***>>>>>>>>>$$$+++###$$$###OOOooo+++###ooo+++   ===>>>::::::>>>###OOO+++OOOooo############OOO         ===+++###,,,2<2<<<,,,222333$$$+++###         :::;;;>>>***+++,,,333222ooo###+++$$$         >;>;;;===:::>>>OOOooo############$$$$$$+++OOO   >>>>>>:::##o$$$#########ooo@++ooo$$$###ooo###   >>>>>><<<444<<<<<<$$$##",
"        ooo+++<<<,1,222433333<<<#########      >>>::::::;;;>>>######oooooo###OOOOOO+++OOOOOO   **:>>>>>>>>>$$$+++###$$$###OOOooo+++###ooo+++   ===>>>::::::>>>###OOO+++OOOooo############OOO         ===+++###,,,226<<<,,,222333$$$+++###         :::;;;>>>***+++,,,333222ooo###+++$$$         >>>;;;===:::>>>OOOooo######$#####$$$$$$+++OOO   >>>>>>:::###$$$#########ooo+++ooo$@$###ooo###   >>>:>><<<464<<<,<<$$$##",
"           +++###$$$###oooOOO######OOO         >>>::::::;;;===$$$      OOO+++oooOOO+++###$$$         ;;;ooo###+++oooooo   $$$#$$###oooOOO###         ***:::######$$$###ooo$$$###$$$ooo+++$$$            +++OOOooo<<<444<<<222######+#+                  >>>>>>+++######+++OOOOOO###                  ***>>>+++###ooo+++###ooo+++$$$$$$###OOO         OOO+++ooo$$$######      ooo###+++OOOOOO      ######oooOO$+++ooooo",
"           @++###$$$###oooOOO######OOO         >>>:::::*;;;===$$$      OOO+++oooOOO+++###$$$         ;;;ooo###+++oooooo   $$$$$$###oooOOO###         ***:::######$$$###ooo$$$#+#$$$ooo+++$$$            +++OOOooo<<<444<<<222#####o+++                  >>>>>>+++######+++OOOOOO#+#                  ***>>=+++###ooo+++###ooo+++$$$$$$###OOO         OOO+++ooo$$$######      ooo###+++OOOOOO      #+####oooOOO+++ooooo",
"           +++###$$$###oooOOO######OOO         >>>::::::;;;===$$$      OOO+++oooOOO+++###$$$         -;;ooo###+++oooooo   $$$$$$###oooOOO###         ***:::######$$$###ooo$$$###$$$ooo+++$$$            +++OOOooo<<<444<<<222######+++                  >>>>>>+++######+++OOOOOO###                  ***>>>+++###ooo+++###ooo+++$$$$$$###OOO         OOO+++ooo$$$######      ooo###+++OOOOOO      ######oooOOO+++ooooo",
"              OOO$$$+++oooOOO+++$$$                  :::>>>oooOOO      OXO###$$$OOO###$$$ooo         >>>ooo$$$######$$$   oooooo######o.o###         ***===###oooOOO###$$$$##+++OOOOOO+++###               #$$#########$$$+++$$$ooo                     ===###+++o.ooOO###ooo$$$                     ::::::$###$$OOO+++ooo$$$###OOO###+++OOO         $$$+++#########ooo      ooo###+++oooOOO      $$$###ooo######ooo##",
"              OOO$$$+++oooOOO+++#$$                  :::>>>oooOOO      OOO###$$$oOO###$$$ooo         >>>ooo$$$######$$$   ooooo#######ooo###         ***===###oooOOO###$$$###+++OOOOOO+++###               $$$$########$$$+++$$$ooo                     *==###+++oooOOO##oooo$$$                     ::::::#+#$$$OOO+++ooo$$$###OOO###+++OOO         $$$+++#########ooo      o.o###+++oooOOO      $$$###ooo######ooo##",
"              OOO$$$+++oooOOO+++$$$                  :::>;>oooOOO      OOO###$$$OOO###$$$ooo         >>>ooo$$$#####o$$$   o.oooo######ooo###         ***===###oooOOO###$$$###+++OOOOOO+++###               $$$##o######$$$+++$$$Ooo                     ===###+++oooOOO###ooo$$$                     ::::::###$$$OOO+++ooo$$$###OOO###+#+OOO         $$$+++#########ooo      ooo###+++oooOOO      $$$###ooo######ooo##"
};
