/* XPM */
static char *result[] = {
/* columns rows colors chars-per-pixel */
"48 48 116 2 ",
"   c black",
".  c #010000",
"X  c #000100",
"o  c #010100",
"O  c #000001",
"+  c #010001",
"@  c #000101",
"#  c #010101",
"$  c #464646",
"%  c #474646",
"&  c #464746",
"*  c #474746",
"=  c #464647",
"-  c #474647",
";  c #464747",
":  c gray28",
">  c #5C5A5A",
",  c #5D5A5A",
"<  c #5C5B5A",
"1  c #5D5B5A",
"2  c #5D5A5B",
"3  c #5D5B5B",
"4  c #980031",
"5  c #990031",
"6  c #EC1C24",
"7  c #EC1C25",
"8  c #9D5A3C",
"9  c #9C5A3D",
"0  c #9D5A3D",
"q  c #66FE00",
"w  c #67FE00",
"e  c #66FF00",
"r  c #67FF00",
"t  c #66FE01",
"y  c #67FE01",
"u  c #66FF01",
"i  c #67FF01",
"p  c #22B04C",
"a  c #23B04C",
"s  c #22B14C",
"d  c #23B14C",
"f  c #22B04D",
"g  c #23B04D",
"h  c #22B14D",
"j  c #23B14D",
"k  c #A8E61C",
"l  c #A9E61C",
"z  c #A8E71C",
"x  c #A9E71C",
"c  c #A8E61D",
"v  c #A9E61D",
"b  c #A8E71D",
"n  c #A9E71D",
"m  c #FEC20E",
"M  c #FEC20F",
"N  c #FFC20F",
"B  c #FFC30F",
"V  c #FEF200",
"C  c #FFF200",
"Z  c #FEF300",
"A  c #FFF300",
"S  c #FEF201",
"D  c #FFF201",
"F  c #FEF301",
"G  c #FFF301",
"H  c #E4AA7A",
"J  c #E5AA7A",
"K  c #E4AB7A",
"L  c #E5AB7A",
"P  c #E4AA7B",
"I  c #E5AA7B",
"U  c #E4AB7B",
"Y  c #E5AB7B",
"T  c #4D6CF2",
"R  c #4C6DF2",
"E  c #4D6DF2",
"W  c #4C6CF3",
"Q  c #4C6DF3",
"!  c #8E8E8E",
"~  c #8F8E8E",
"^  c #8E8F8E",
"/  c #8F8F8E",
"(  c #8E8E8F",
")  c #8F8E8F",
"_  c #8E8F8F",
"`  c gray56",
"'  c #B4B4B4",
"]  c #B5B4B4",
"[  c #B4B5B4",
"{  c #B5B5B4",
"}  c #B4B4B5",
"|  c #B5B4B5",
" . c #B4B5B5",
".. c gray71",
"X. c #B7B8B8",
"o. c #B8B9B9",
"O. c #F4E49C",
"+. c #F5E49C",
"@. c #F4E59C",
"#. c #F5E59C",
"$. c #F4E49D",
"%. c #F5E49D",
"&. c #F4E59D",
"*. c #F5E59D",
"=. c #E6E6E6",
"-. c #E7E6E6",
";. c #E6E7E6",
":. c #E7E7E6",
">. c #E6E6E7",
",. c #E7E6E7",
"<. c #E6E7E7",
"1. c #E7E7E7",
"2. c #FEFEFE",
"3. c #FEFEFF",
"4. c #FEFFFF",
"5. c white",
/* pixels */
"} } } ' ' ' m m m G G G V V V F S F C C C N N N z z x x l x c c c c c c w w w -.-.-.,.,.,.' } | ",
"} } } ' ' ' m m m G G G V V V F F F C C C N N N b z z x x x c b c k c c w r w ,.-.-.-.,.,.' } | ",
"} } } ' ' ' M m m G G G V V V F F F C A C N N M z z z x x x c c c c b v w r w -.-.-.,.,.,.}  .} ",
"^ ^ ^ _ _ _ C C C D D D D D D F F F V V V Z Z Z M M M z z z c c v v v v l v v { { { ......[ ' { ",
"^ ^ ^ _ _ _ C C C D D D D D D F F F V V V Z Z A M M M z z z c c c v v v v v v ..{ [ ......[ [ [ ",
"^ ^ ^ _ _ _ D C C D D D D D D F F F V V V Z Z Z M M N b z z c b c v v c v v v { ] { ......[ [ [ ",
"` ` ` , , , B B B V V V # # # @ @ @ Z Z Z V V V S V V v v v b b b v v v s s s d d d _ _ ` ~ ~ ~ ",
"` ` ` 2 , , B B B V V V # + # @ @ @ Z Z A V V V V V V v v v b b b v v v s s s d d d _ _ _ ~ ~ ~ ",
"` ` ` , 1 , B B B V V V # # # X @ @ Z Z Z V V C V V V l v v b c b l v v s s s d d d _ _ _ ~ ~ ~ ",
"1 1 < y y y u u u . . . E T E 3.3.3.$.$.$.A C A B B B l l l *.*.&.x x x h h h h s s g g g ^ ^ ^ ",
"1 1 1 y y y u u u . . . E E E 2.3.3.$.$.$.A C A B B B l l l *.%.*.x x x h h h s s s g g g ^ ^ / ",
"1 1 1 w i y u u u . . . E T E 2.4.3.$.$.$.A A A B B B l l l *.*.*.x x z h h j s s s g g g _ ^ ^ ",
"t t t i r r # # # *.*.*.R Q Q 5.5.5.#.#.#.*.*.*.D D D $.$.$.+.#.+.d d d j j j g g g h h h ; ; ; ",
"t u y r r e o # # *.*.*.Q W Q 5.5.5.#.#.#.*.*.*.D G D $.$.$.+.+.+.j d d j j j g g g h h h ; ; ; ",
"t t t r r r # # # *.*.*.Q Q Q 5.5.5.#.#.#.*.*.*.C D D $.$.$.+.+.O.d d d j g j a g g h h h ; ; ; ",
"i i i ;.;.;.@ @ @ *.*.&.+.+.+.+.+.+.O.O.O.#.+.#.S S S I I P + + +       d d d d d s   X   r i i ",
"i i i ;.=.;.@ O @ *.*.*.+.+.O.+.+.+.O.O.O.#.#.#.S S S I I I + + +       d d d d d d       i i i ",
"r i i ;.;.;.@ O # *.%.*.+.+.+.+.+.+.O.O.O.#.+.#.S S D J I I + + +       d d d d d d       r i i ",
"1.:.:.' ' ]  .o. .O O + &.@.@.#.+.#.O.@.O.&.&.&.S V V o o o { { {  . . .+ # +       # # # ,.,.>.",
":.-.:.' ' '  .}  .O @ O @.@.@.#.#.#.$.O.O.&.&.&.V V V o o o { { {  . . .+ + +       # # # ,.,.,.",
"1.:.:.' ' ' X. . .O O O &.@.@.#.#.#.O.O.O.&.&.&.V V V o o o { { {  . . .+ + +       # # # ,.,.,.",
"} ' ] ] ] ] ~ ~ ! ! ! ! o o X L Y U P P P Y L L X X o + + + [ [ [ ` ` ` ! ^ ! + + + ,.,.,.'  .} ",
"' ' ' ] ] ] ~ ~ ! ! ! ! o o o Y Y Y P P I L L L X X X + + + [ [ [ ` ) ` ! ! ! + + O ,.,.,.} } | ",
"} ' ' ] ] ] ~ ~ ! ! ! ~ o o o Y Y Y P P P L L L X X X + + + [ [ [ ` ` ` ! ! ! + + + -.,.,.' } } ",
"_ _ _ ( ( ( ^ ^ ^ * * * + + + f f f j j j . . . # # @ # # # X X o _ _ ` & & & t q q ~ ~ ~ / / / ",
"_ _ _ ( _ ( ^ ^ ^ * * * + + + f f f j j j . . . # # # # # @ X X X _ _ _ & & & q q q ~ ~ ~ / / / ",
"_ _ _ ( _ ( ^ ^ ^ * * * + + + f h f j j j . . . # # # # # # X X X _ _ _ & & & q q q ) ~ ~ / / / ",
"( ( ( - - - & & & # # # G G G p f f p p a @ @ @ b b b k k k . + + . o . i i i y y t : : : ~ ~ ~ ",
"( ( ( - - - & & & o + # A G G f h f p p p @ @ @ b b b k k k . + + . . . i i i y y y : : : ~ ~ ~ ",
"( ( ( - - - & & & # # # G G G f f f p s p @ @ @ b b b c k k . + + . . . i i u y y y : : ; ~ ~ ~ ",
"* * * q q q u u u + + + F F F 9 9 9 0 0 0 O O O z z z n n n + + + s s s . . . r r e q q q : : : ",
"* * * q q q u t i + + O F F F 9 9 9 8 0 0 O O + z z z n n n + + + s s s . . . i r e q e q : : : ",
"* % * q q q u u i + + O F S F 9 9 0 0 0 0 O O + z z z n n n . + + s s s . . . r r r q q q : - : ",
"t t y r r e <.<.<.o # # c c c v v v v v v o o o v v v z z z . . . b b b o # # ] ] ] } } } ! ^ ! ",
"q t t i r r <.<.<.# # # c c c v v v v n v o o o v v v z z z . . . b b b # # # ] ] ] } } } ! ! ! ",
"t t t i r r ;.>.<.o # # c c c v n v v v v o o o v v v z z x . . . b b b # # # ] ] ' ' } | ! ! ! ",
"y y t :.:.;.' ' ' ] ] ] . . . b z z n n n X X X %.%.%.#.#.#.X X X z k z # + # [ [ [ ! ! ! , , , ",
"y i y :.:.:.' ' ] ] ] ] . . . z z z n n n X X X %.*.%.#.#.#.X X X z z z o # # [ [ { ! ! ! , , , ",
"y y y :.:.:.' ' ' | ] ] . o . z z z n v n X X X %.%.%.#.+.#.X X X z z z # # # [ [ [ ! ! ! , , , ",
"r r r ,.,.,.] ] ] / ` ` + + + o o o       # # # %.%.%.K K K . . . O O O ! ! ! _ _ _ > > , = = = ",
"i r r -.,.,.] ] ] ` ` ` + + + o o o       # # # %.%.%.K K K . . . O O O ! ! ! _ _ _ > > > = = = ",
"r r r ,.,.,.] ] ' / ) ` + + + o o o       # # # %.*.%.K H K . . . O O O ! ! ! ^ _ _ > > > $ = = ",
"e q e t t t ~ ~ ~ ! ! ! O @ + 6 6 6 6 6 6 5 5 4 . . . + + +  . . .! ! ! ) ) ) 2 2 2 : : ; y y y ",
"u e e q t t ~ ~ ~ ! ! ! O O O 6 6 6 7 6 6 5 5 5 . . . + # O [  . .! ! ! ) ) ) 2 2 2 : : ; y y y ",
"e e e t t t ~ ~ ~ ! ! ! O O O 6 6 6 6 6 6 5 5 4 . . . + + +  . . .! ! ! ) ) ) 2 2 2 : - : y i y ",
"{ { { i i i : - : & ; ; $ $ $ + + +   O O # # # q t y & & * ^ ^ ^ ( ( ( 1 1 1 - - - ;.;.;.;.<.<.",
"{ ] { i i u : : : ; ; ; $ $ $ . + O O O O # # # t t t & & * ^ ^ ^ ( ( ( 3 1 1 - - - ;.;.;.<.<.<.",
"{ ] { i i i : : : ; ; ; = $ $ . + + O O O # # # q t t & & & ^ ^ ^ ( ( ( 1 , 1 - - - ;.;.;.<.<.<."
};
