/* XPM */
static char *result[] = {
/* columns rows colors chars-per-pixel */
"48 48 99 2 ",
"   c black",
".  c #010000",
"X  c #000100",
"o  c #010100",
"O  c #000001",
"+  c #010001",
"@  c #000101",
"#  c #010101",
"$  c #6E402C",
"%  c #6F402C",
"&  c #6F412C",
"*  c #6E402D",
"=  c #6F402D",
"-  c #6E412D",
";  c #6F412D",
":  c #464646",
">  c #464746",
",  c #464647",
"<  c #474647",
"1  c #464747",
"2  c gray28",
"3  c #5C5A5A",
"4  c #5D5A5A",
"5  c #5C5B5A",
"6  c #5D5B5A",
"7  c #5D5A5B",
"8  c #5D5B5B",
"9  c #980030",
"0  c #990030",
"q  c #990130",
"w  c #980031",
"e  c #990031",
"r  c #980131",
"t  c #EC1C24",
"y  c #ED1C24",
"u  c #EC1D24",
"i  c #ED1D24",
"p  c #ED1C25",
"a  c #EC1D25",
"s  c #9C5A3C",
"d  c #9D5A3C",
"f  c #9C5B3C",
"g  c #9D5B3C",
"h  c #66FE00",
"j  c #66FF00",
"k  c #67FF00",
"l  c #66FE01",
"z  c #67FE01",
"x  c #66FF01",
"c  c #67FF01",
"v  c #22B04C",
"b  c #23B04C",
"n  c #22B14C",
"m  c #23B14C",
"M  c #22B04D",
"N  c #23B04D",
"B  c #22B14D",
"V  c #23B14D",
"C  c #A8E61C",
"Z  c #A9E61C",
"A  c #A8E71C",
"S  c #A9E71C",
"D  c #A8E61D",
"F  c #A9E61D",
"G  c #A8E71D",
"H  c #A9E71D",
"J  c #FEF201",
"K  c #FFF201",
"L  c #FFF301",
"P  c #E4AB7A",
"I  c #E5AB7A",
"U  c #E4AB7B",
"Y  c #8F8E8E",
"T  c #8E8F8E",
"R  c #8F8F8E",
"E  c #8E8F8F",
"W  c #B4B4B4",
"Q  c #B5B4B4",
"!  c #B4B5B4",
"~  c #B5B5B4",
"^  c #B4B4B5",
"/  c #B5B4B5",
"(  c #B4B5B5",
")  c #F4E49C",
"_  c #F5E49C",
"`  c #F4E59C",
"'  c #F5E59C",
"]  c #F4E49D",
"[  c #F5E49D",
"{  c #F4E59D",
"}  c #F5E59D",
"|  c #E6E6E6",
" . c #E7E6E6",
".. c #E6E7E6",
"X. c #E7E7E6",
"o. c #E6E6E7",
"O. c #E7E6E7",
"+. c #E6E7E7",
"@. c #E7E7E7",
/* pixels */
"^ ^ ^ W W W l l l O O O @ # # .   O G G G A A A D D D H D A O + + + + . # + #  . . .O.O.O.W ^ / ",
"^ ^ ^ W W W l l l O O O # # #       H G G A A A D D D G G G + # . + + + # # # O. . . .O.O.W ^ / ",
"^ ^ ^ W W W l l z O O O # # o     O G G G A A A D D D G G G + + + + # . # + #  . . .O.O.O.^ ( ^ ",
"T T T @ O @ . . . F F F C C D Z S Z H H H Z Z Z C C C G D G G D G F F F Z Z Z o o o . . . ! W ~ ",
"T T T @ @ @ . . . F F F C C C Z Z Z H H H Z Z Z C C C G G G G G G F F F Z Z Z o o o   . . ! ! ! ",
"T T T @ @ @ . . . F F F C C C C Z Z H F H Z Z F Z C C G G G G G G F F F Z Z Z o . o . . . ! ! ! ",
"      } } } ] ] ] { { { H H H H H H A C A F F F Z Z Z H H H F D D G G G ) ) ) _ _ _ ) ) ) X X X ",
".     } } ' ] ] ) { { { H H H H H H A A A F F F Z Z Z H H H D D D G G G _ ` ) _ ' _ ) ) ) X X X ",
". X   } } } ] ] ] { { { G H H H H H A A A F H F Z S Z H H H D D C G G G ) ) ) _ _ _ _ ) ) X X X ",
"6 6 5 .     X X X _ _ _ ] ] ] D D D D D D C C C C C C S A G G G G _ _ _ ] ] ] o o o # # # T T T ",
"6 6 6       X X X _ _ _ ] ] ] D G D D G D C C C C C D A A A G D G _ ' _ ] ] ] X o o # # o T T R ",
"6 6 6     O X X @ _ _ _ ] ] ] D D D D D D C C C C C C A A A G G A ) _ _ ] ] ] o o o # # # E T T ",
"l l l + @ O K L K X X @ X X X A S S F F F G D G H H H Z Z Z S S S X X X @ @ @ K J J O O O 1 1 1 ",
"l x z + O   K K K X X X X X X S S S F F F G G G H H H Z Z Z S S S X X X @ O @ J J J O O O 1 1 1 ",
"l l l O O O K K K X   X X X X S S S F F F G G G H H H Z Z Z S S S o X X @ @ X J J J O O O 1 1 1 ",
"c c c ....... . . d d d + + + H H H S S S D G D D D D Z Z Z A A G X X X f f f # # o c c c k c c ",
"c c c ..| ... . + d g d + + + H F H S S H D D D D D D Z Z Z A A G X X X f f f # # # c c c c c c ",
"k c c ....... . . s d d + + + H F H S S S D D D D D D Z Z Z A A A o X @ f f f # # # c c x k c c ",
"@.X.X.W W Q ( ( ( @ @ @ . . . . . . N N N G G G G H H n m m X X X . . . . o . ^ ^ ^ x x c O.O.o.",
"X. .X.W W W ( ^ ( @ @ @ . . . . . . N N N G G A H F H m m m o X X . . . . . . ^ ^ ^ x x x O.O.O.",
"@.X.X.W W W ( ( ( # @ @ . . . . . . N N N G G G H H H m m m X X X . . . . . + ^ ^ ^ x x x O.O.O.",
"^ W Q Q Q Q X X X D D D S S S b b N # # # Z C C H H H + + + v n v F F F D D D O @ O O.O.O.W ( ^ ",
"W W W Q Q Q X X X D G C S S S b b b # # o C C C H H H + + + v n v F F F D D D O O O O.O.O.^ ^ / ",
"^ W W Q Q Q X X X D D D S S S b m b # # # C C D H H H + + + v v v F F F D D D O O O  .O.O.W ^ ^ ",
"E E E o o o S A A C C C G G G v v v + + . N N N N N N O O O N M M F H F D D D C C C X X X R R R ",
"E E E o o o A A G C C C G G G v v M + + + N N N M N N O @ O M M M F F F F G D C C C X X X R R R ",
"E E E o o o S A A C C C G G G v v v + + + N N N N V N O O O N M M F H F D D D C C C o X X R R R ",
"X X X A A A D D D % % % Z Z Z C C C N M M o o o # # # N N N D D D C C C ; ; ; G G G C C C . . . ",
"X   X A C A D D D % % % C Z Z C C C M M M o o o # # # N N N D D D C C C ; ; ; G G G C C C . . . ",
"X X @ A A A D D D % % % Z Z Z C C C M B v o o # # # # N N N D D D C C C ; ; ; G D G C C C . o . ",
"X X X } { { ) ) ) D D D ; ; ; & & & - - - * * * * * * - - - = = % % % % F D D [ [ [ } } ' O O O ",
"X X X { { { ) ) ) D D D ; = ; & & & - * - * * $ * * * - - - = = = % % = D D D [ } [ } } ' O @ O ",
"X X X { ] { ) ) ) D D D ; ; ; & & & - - - = * * * * * - - - = = = % & % D D D [ } [ } } } O O O ",
"# @ @ _ _ _ P P P A A A A S S C C C C C C A S S F F F Z Z Z S S S Z Z Z A S S I P U { { { . . . ",
"@ @ @ _ _ [ I P P A A A S S S C C C C C C A S S D F F Z Z Z S S H Z S Z S S S P P U { { { . . + ",
"@ @ @ _ _ _ P P P A A A S S S Z C D C C C S S H F F F Z Z Z S S S Z Z Z S S S P P P { { { . . . ",
"z z l + + + O O         A A A H H H D D D D D D C C C D D D D D C S S S .     X   X X X X 4 4 4 ",
"z c z + + + O @ O       A A A H H H D G D D D C Z C C D D D D D D S S S       X X X X   X 4 4 4 ",
"z z z + + + O O         A A A H H H D D D D D D C C C D D D D G D S S S       X X X X X X 4 4 4 ",
"k k k O.O.O.+ + + w w w X X X S S S F F F H H H S S S F F F Z Z Z o o o 0 0 0 # # # 3 3 4 , , , ",
"c k k  .O.O.O + . w w w X X X S S S F F F H H H A S S F F F Z Z Z o . o 0 0 0 # # # 3 3 3 , , , ",
"k k k O.O.O.+ + + w r w X X X S Z S F F F H H H S S S F F F Z S Z o o o 0 0 0 # # # 3 3 3 : , , ",
"j h j l l l Y Y Y X X X w w w u t u i u u O O O # + # y y p y t t 0 0 e @ # # 7 7 7 2 2 1 z z z ",
"x j j h l l Y Y Y X X X w w w i u a u u u O O O @ # o y i y t t t 9 q 0 # # # 7 7 7 2 2 1 z z z ",
"j j j l l l Y Y Y X X X w w w u u a u u a O O O # # # y y y t t t 0 0 0 # # # 7 7 7 2 < 2 z c z ",
"~ ~ ~ c c c 2 < 2 > 1 1 + + + + O O o X X x x x h l z X X X O O O .     6 6 6 < < < ........+.+.",
"~ Q ~ c c x 2 2 2 1 1 1 + + + O O O X   X x x c l l l X X X O @ O       8 6 6 < < < ......+.+.+.",
"~ Q ~ c c c 2 2 2 1 1 1 + + + + O O X X X x x c h l l X X X O O O       6 4 6 < < < ......+.+.+."
};
