/* XPM */
static char *result[] = {
/* columns rows colors chars-per-pixel */
"48 48 132 2 ",
"   c black",
".  c #010000",
"X  c #000100",
"o  c #010100",
"O  c #000001",
"+  c #010001",
"@  c #000101",
"#  c #010101",
"$  c #007A23",
"%  c #017A23",
"&  c #007B23",
"*  c #6E402C",
"=  c #6F402C",
"-  c #6E412C",
";  c #6F412C",
":  c #6E402D",
">  c #6F402D",
",  c #6E412D",
"<  c #6F412D",
"1  c #464646",
"2  c #474646",
"3  c #464746",
"4  c #474746",
"5  c #464647",
"6  c #474647",
"7  c #464747",
"8  c gray28",
"9  c #5C5A5A",
"0  c #5D5A5A",
"q  c #5C5B5A",
"w  c #5D5B5A",
"e  c #980030",
"r  c #980130",
"t  c #990130",
"y  c #990031",
"u  c #990131",
"i  c #ED1C24",
"p  c #EC1D24",
"a  c #ED1D24",
"s  c #ED1C25",
"d  c #EC1D25",
"f  c #ED1D25",
"g  c #66FE00",
"h  c #67FE00",
"j  c #66FF00",
"k  c #67FF00",
"l  c #66FE01",
"z  c #67FE01",
"x  c #66FF01",
"c  c #67FF01",
"v  c #22B04C",
"b  c #23B04C",
"n  c #22B14C",
"m  c #23B14C",
"M  c #22B04D",
"N  c #23B04D",
"B  c #22B14D",
"V  c #23B14D",
"C  c #A8E61C",
"Z  c #A9E61C",
"A  c #A8E71C",
"S  c #A9E71C",
"D  c #A8E61D",
"F  c #A9E61D",
"G  c #A8E71D",
"H  c #A9E71D",
"J  c #FEF200",
"K  c #FFF200",
"L  c #FEF300",
"P  c #FFF300",
"I  c #FEF201",
"U  c #FFF201",
"Y  c #FEF301",
"T  c #FFF301",
"R  c #E4AA7A",
"E  c #E5AA7A",
"W  c #E4AB7A",
"Q  c #E5AB7A",
"!  c #E4AA7B",
"~  c #E5AA7B",
"^  c #E5AB7B",
"/  c #4C6CF2",
"(  c #4D6CF2",
")  c #4C6DF2",
"_  c #4D6DF2",
"`  c #4D6CF3",
"'  c #4C6DF3",
"]  c #4D6DF3",
"[  c #8E8E8E",
"{  c #8E8F8E",
"}  c #8F8F8E",
"|  c #8E8F8F",
" . c #B4B4B4",
".. c #B5B4B4",
"X. c #B4B5B4",
"o. c #B5B5B4",
"O. c #B4B4B5",
"+. c #B5B4B5",
"@. c #B4B5B5",
"#. c #F4E49C",
"$. c #F5E49C",
"%. c #F4E59C",
"&. c #F5E59C",
"*. c #F4E49D",
"=. c #F5E49D",
"-. c #F4E59D",
";. c #F5E59D",
":. c #D2F8BC",
">. c #D3F8BC",
",. c #D2F9BC",
"<. c #D3F9BC",
"1. c #D2F8BD",
"2. c #D2F9BD",
"3. c #FEF8BC",
"4. c #FFF8BC",
"5. c #FEF9BC",
"6. c #FFF9BC",
"7. c #FEF8BD",
"8. c #FEF9BD",
"9. c #FFF9BD",
"0. c #E6E6E6",
"q. c #E7E6E6",
"w. c #E6E7E6",
"e. c #E7E7E6",
"r. c #E6E6E7",
"t. c #E7E6E7",
"y. c #E6E7E7",
"u. c #E7E7E7",
"i. c #FFFEFE",
"p. c #FFFFFE",
"a. c #FEFEFF",
"s. c #FFFEFF",
/* pixels */
"O.O.O. . . .l l l l l l r.r.r.o o o G G G H H H D D D D D C       | | | h h h q.q.q.t.t.t. .O.+.",
"O.O.O. . . .l l l l l l r.r.r.o o o G G A H H H D D D D D D       | | | h k h t.q.q.q.t.t. .O.+.",
"O.O.O. . . .l l z l l l r.r.r.o o o G G G H H H F D D D D D       | | | h k h q.q.q.t.t.t.O.@.O.",
"{ { { + # . @ @ @ 0.0.0.@ @ @ D D D D G D D D D F F F F D D C C C @ @ @ 0.0.0.+ + + # # # X. .o.",
"{ { { + + + @ @ @ r.0.q.@ @ @ F D C D D D D G D F F F D D D C C C @ @ @ 0.0.0.O + + # # # X.X.X.",
"{ { { + + + @ @ @ 0.0.q.@ @ @ D D D D D D D D D F F F D D C C C C @ @ @ 0.0.0.+ + + # + # X.X.X.",
"X X X E E E -.;.;.X o o D F F I I I I I I U U U U U K P P P J J J U U K O + . ;.;.;.W W W o o o ",
"o X X E E E ;.;.;.o o o D F F I I I I I I I U U U U U P P P K L J U U U + + + ;.;.;.W W W o o o ",
"X X X E E E ;.;.&.X o o F F F I I I I I I U U U U U K P P P J J J U U K + + . ;.;.;.W W W o o o ",
"w w q X X X %.%.%.K K K Y I Y       L L L K J J %.%.%.#.#.#.@ @ @ T Y Y J J J ;.;.;.# # # { { { ",
"w w w X X X %.%.%.K K K Y Y Y     O P L L J L J %.%.%.#.%.#.@ @ @ Y Y Y K J J ;.;.;.# # # { { } ",
"w w w X X X %.%.%.K K U Y Y Y       P L L J J J %.%.-.#.#.#.@ @ @ Y Y Y J J J ;.;.;.# # # | { { ",
"l l l       -.;.;.J L J a.a.a.) ) ) # # # $.$.$.&.&.&.. . . ( ( ( p.p.p.U U U $.$.=.@ @ @ 7 7 7 ",
"l x z       ;.;.;.K J J s.a.a._ ) ) # + # $.$.$.&.&.&.. . . ( ( ( p.p.p.U U U $.$.=.@ @ @ 7 7 7 ",
"l l l       ;.;.;.J J I a.a.a.) ) ) # + o $.$.$.&.&.&.. . . ( ( ( p.p.p.U U U $.$.$.@ @ @ 7 7 7 ",
"c c c w.w.w.. . . J J J *.*.#.) / ) i.i.i.%.%.%.&.&.&.a.a.a.` ] ` %.%.%.P P P X X @ c c c k c c ",
"c c c w.0.w.. . . J J I *.*.*.) ) ' i.i.i.%.%.%.&.&.&.a.a.a.` ` ` %.%.%.P K P X X X c c c c c c ",
"k c c w.w.w.. . . J J J *.*.*.) ) ' i.i.i.%.%.%.&.&.&.a.a.a.` ` ` %.%.%.P P P X X X c c x k c c ",
"u.e.e. . ...@.@.@.# @ @ %.%.%.=.;.=.*.*.*.;.;.;.$.$.$.*.*.*.-.-.-.=.=.$.+ + + O.O.O.x x c t.t.r.",
"e.q.e. . . .@.O.@.@ @ X %.#.%.*.=.=.*.*.*.;.;.;.$.$.=.*.*.*.-.-.-.=.=.=.+ + + O.O.O.x x x t.t.t.",
"u.e.e. . . .@.@.@.@ @ @ %.%.%.=.=.=.*.*.*.;.;.;.$.$.$.*.-.*.-.-.-.*.;.=.+ + + O.O.O.x x x t.t.t.",
"O. .........o o o <.,.,.@ @ @ ~ ~ ~ ;.;.;.;.;.;.&.$.&.&.&.&.^ ^ ^ X X @ <.<.<.+ + + t.t.t. .@.O.",
" . . .......X o o ,.,.,.@ O @ ~ ~ ~ ;.=.;.-.;.;.&.&.&.&.&.&.^ ^ ^ X X X ,.<.<.+ + + t.t.t.O.O.+.",
"O. . .......o o o ,.,.,.@ @ X ~ ~ ~ -.;.;.;.;.;.&.&.;.&.$.&.^ ^ ^ X X X <.>.<.+ + . q.t.t. .O.O.",
"| | | X X X :.:.:.>.>.>.% % % v v v b b N m m m M B M B B B b b b $ $ $ 2.2.2.>.>.>.O @ O } } } ",
"| | | X X X :.:.:.>.>.>.$ % % v v v b b b m m m M B M B M B b b b $ $ $ 2.1.2.>.>.>.O @ O } } } ",
"| | | X X X :.:.:.>.>.>.% % % v v v b b b m m m N M M B M B v b b $ & $ 2.2.2.>.>.>.O O O } } } ",
"o o o 9.8.8.5.5.5.- - - : : : M M M N N N B B B N B M b b b m m m , , , = = = 7.7.7.7.7.7.# # # ",
"o . o 8.8.8.5.5.5.- - - : : * M M M N N N B B B M M M b m b m m m , , , = = = 7.7.7.7.7.7.# # # ",
"o o o 8.8.8.5.5.8.- - , : : * M M M N N N B B B M M M b b b m m m , , - = = = 7.7.3.7.7.7.# # # ",
"+ + + E R R 6.6.6.B B n C C C , , , > > > K K K P P T ; ; ; - - - H F H n n n 4.4.4.R Q ~       ",
"+ + + R R R 6.6.6.B B B C C D , , , > > > K K K L P P ; ; ; - - - H H H n n n 4.4.4.E E E       ",
"+ + + R R ! 6.6.6.B B B C C C , , , : < > K K K P P T ; ; ; - - , H H H n n n 4.4.4.R E E .     ",
"l l z O O   + + + o o o Z Z Z H H H V V V J J J T T T N N N S Z S C A C o o o       X   X [ { [ ",
"g l l O O O + + + o o # Z Z Z H H H V V V J J J T U T N N N S S S C A C o o o       X X X [ [ [ ",
"l l l O O O + + + o o o Z Z Z H H H V V V J J J T T T N N b S S S C A C o o o     O X X X [ [ [ ",
"z z l e.e.w. . . .. . . .     H H H G G G F D C A A A C C C H H H   X   . . . X.X.X.[ [ [ 0 0 0 ",
"z c z e.e.e. . .... . . .     G H H G G G D D C A A A C C C H H H       . . . X.X.o.[ [ [ 0 0 0 ",
"z z z e.e.e. . . .. . .     O H H H G G G D D D A A A C C C H H H       . . . X.X.X.[ [ [ 0 0 0 ",
"k k k t.t.t.o o o s s s e e e . . .       . . . . . . . . . + # + r r r a i a # # # 9 9 0 5 5 5 ",
"c k k q.t.t.X o o s s s e r e . . .       . . . . . . . . . + + + r r r a a a # # # 9 9 9 5 5 5 ",
"k k k t.t.t.o o o s s s e e e . . .       . . + . . . . . . + # + t r r a a a # # # 9 9 9 1 5 5 ",
"j g j l l l + + + p p p d d d t t t # # # 1 1 1 l g g X X X u y u f f f d d d O O O 8 8 7 z z z ",
"x j j g l l + # + p p p d d d t t t # # o 1 1 1 g g g X X X u u u f f f f d d O O O 8 8 7 z z z ",
"j j j l l l + + + a p p d d p t t t # # # 1 1 1 g g g X X X u y u f f f d d d O @ O 8 6 8 z c z ",
"o.o.o.c c c 8 6 8 . o . + + + . . . 4 4 4 x x x g l z 3 3 4 o . o             6 6 6 w.w.w.w.y.y.",
"o...o.c c x 8 8 8 . . . + + + . . . 4 4 4 x x c l l l 3 3 4 o . o             6 6 6 w.w.w.y.y.y.",
"o...o.c c c 8 8 8 . . . + + + . . . 4 2 4 x x c g l l 3 3 3 o o o   X O       6 6 6 w.w.w.y.y.y."
};
