/* XPM */
static char *result[] = {
/* columns rows colors chars-per-pixel */
"48 48 115 2 ",
"   c black",
".  c #010000",
"X  c #000100",
"o  c #010100",
"O  c #000001",
"+  c #010001",
"@  c #000101",
"#  c #010101",
"$  c #464646",
"%  c #474646",
"&  c #464746",
"*  c #474746",
"=  c #464647",
"-  c #474647",
";  c #464747",
":  c gray28",
">  c #5C5A5A",
",  c #5D5A5A",
"<  c #5C5B5A",
"1  c #5D5B5A",
"2  c #5D5A5B",
"3  c #5D5B5B",
"4  c #980031",
"5  c #990031",
"6  c #EC1C24",
"7  c #EC1C25",
"8  c #9D5A3C",
"9  c #9C5A3D",
"0  c #9D5A3D",
"q  c #66FE00",
"w  c #67FE00",
"e  c #66FF00",
"r  c #67FF00",
"t  c #66FE01",
"y  c #67FE01",
"u  c #66FF01",
"i  c #67FF01",
"p  c #22B04C",
"a  c #23B04C",
"s  c #22B14C",
"d  c #23B14C",
"f  c #22B04D",
"g  c #23B04D",
"h  c #22B14D",
"j  c #23B14D",
"k  c #A8E61C",
"l  c #A9E61C",
"z  c #A8E71C",
"x  c #A9E71C",
"c  c #A8E61D",
"v  c #A9E61D",
"b  c #A8E71D",
"n  c #A9E71D",
"m  c #FEC20E",
"M  c #FEC20F",
"N  c #FFC20F",
"B  c #FFC30F",
"V  c #FEF200",
"C  c #FFF200",
"Z  c #FEF300",
"A  c #FFF300",
"S  c #FEF201",
"D  c #FFF201",
"F  c #FEF301",
"G  c #FFF301",
"H  c #E4AA7A",
"J  c #E5AA7A",
"K  c #E4AB7A",
"L  c #E5AB7A",
"P  c #E4AA7B",
"I  c #E5AA7B",
"U  c #E4AB7B",
"Y  c #E5AB7B",
"T  c #4D6CF2",
"R  c #4C6DF2",
"E  c #4D6DF2",
"W  c #4C6CF3",
"Q  c #4C6DF3",
"!  c #8E8E8E",
"~  c #8F8E8E",
"^  c #8E8F8E",
"/  c #8F8F8E",
"(  c #8E8E8F",
")  c #8F8E8F",
"_  c #8E8F8F",
"`  c gray56",
"'  c #B4B4B4",
"]  c #B5B4B4",
"[  c #B4B5B4",
"{  c #B5B5B4",
"}  c #B4B4B5",
"|  c #B5B4B5",
" . c #B4B5B5",
".. c gray71",
"X. c #B7B7B8",
"o. c #B8B8B9",
"O. c #F4E49C",
"+. c #F5E49C",
"@. c #F4E59C",
"#. c #F5E59C",
"$. c #F4E49D",
"%. c #F5E49D",
"&. c #F4E59D",
"*. c #F5E59D",
"=. c #E7E6E6",
"-. c #E6E7E6",
";. c #E7E7E6",
":. c #E6E6E7",
">. c #E7E6E7",
",. c #E6E7E7",
"<. c #E7E7E7",
"1. c #FEFEFE",
"2. c #FEFEFF",
"3. c #FEFFFF",
"4. c white",
/* pixels */
"} } } ' ' ' t t t t t t c c c c c c x l x x z z N N N C C C F S F V V V G G G m m m >.>.>.' } | ",
"} } } ' ' ' t t t t t t c c k c b c x x x z z b N N N C C C F F F V V V G G G m m m =.>.>.' } | ",
"} } } ' ' ' t t y t t t v b c c c c x x x z z z M N N C A C F F F V V V G G G m m M >.>.>.}  .} ",
"^ ^ ^ _ _ _ w w w v v l v v v v c c z z z M M M Z Z Z V V V F F F D D D D D D C C C ......[ ' { ",
"^ ^ ^ _ _ _ w w q v v v v v v c c c z z z M M M A Z Z V V V F F F D D D D D D C C C ......[ [ [ ",
"^ ^ ^ _ _ _ w w w v v v c v v c b c z z b N M M Z Z Z V V V F F F D D D D D D C C D ......[ [ [ ",
"` ` ` , , , d d d s s s v v v b b b v v v V V S V V V Z Z Z @ @ @ # # # V V V B B B _ _ ` ~ ~ ~ ",
"` ` ` 2 , , d d d s s s v v v b b b v v v V V V V V V A Z Z @ @ @ # + # V V V B B B _ _ _ ~ ~ ~ ",
"` ` ` , 1 , d d d s s s v v l b c b v v l V V V C V V Z Z Z @ @ X # # # V V V B B B _ _ _ ~ ~ ~ ",
"1 1 < g g g s s h h h h x x x &.*.*.l l l B B B A C A $.$.$.2.2.2.E T E . . . = = = ^ ^ ^ ^ ^ ^ ",
"1 1 1 g g g s s s h h h x x x *.%.*.l l l B B B A C A $.$.$.2.2.1.E E E . . . = = - ^ ^ ^ ^ ^ / ",
"1 1 1 g g g s s s j h h z x x *.*.*.l l l B B B A A A $.$.$.2.3.1.E T E . . . = = - ^ ^ ^ _ ^ ^ ",
"t t t h h h g g g j j j d d d +.#.+.$.$.$.D D D *.*.*.#.#.#.4.4.4.Q Q R *.*.*.# # # & & & ; ; ; ",
"t u y h h h g g g j j j d d j +.+.+.$.$.$.D G D *.*.*.#.#.#.4.4.4.Q W Q *.*.*.# # o & & & ; ; ; ",
"t t t h h h g g a j g j d d d O.+.+.$.$.$.D D C *.*.*.#.#.#.4.4.4.Q Q Q *.*.*.# # # & & & ; ; ; ",
"i i i   X   s d d d d d       + + + P I I S S S #.+.#.O.O.O.+.+.+.+.+.+.&.*.*.@ @ @ i i i r i i ",
"i i i       d d d d d d       + + + I I I S S S #.#.#.O.O.O.+.+.+.O.+.+.*.*.*.@ O @ i i i i i i ",
"r i i       d d d d d d       + + + I I J D S S #.+.#.O.O.O.+.+.+.+.+.+.*.%.*.# O @ i i u r i i ",
"<.;.;.# # #       + # + [ [ [ i i i o o o V V S &.&.&.O.@.O.#.+.#.@.@.&.+ O O } o.} u u i >.>.:.",
";.=.;.# # #       + + + [ [ [ i i i o o o V V V &.&.&.O.O.$.#.#.#.@.@.@.O @ O } } } u u u >.>.>.",
"<.;.;.# # #       + + + [ [ [ i i i o o o V V V &.&.&.O.O.O.#.#.#.@.@.&.O O O } } X.u u u >.>.>.",
"} ' ] ] ] ] + + + ! ! ! = = = i i i + + + o X X L L Y P P P U Y L X o o ! ^ ! = = = >.>.>.'  .} ",
"' ' ' ] ] ] O + + ! ! ! = = - i i i + + + X X X L L L I P P Y Y Y o o o ! ! ! $ = = >.>.>.} } | ",
"} ' ' ] ] ] + + + ! ! ~ $ = = i i u + + + X X X L L L P P P Y Y Y o o o ! ! ! = = - =.>.>.' } } ",
"_ _ _ ( ( ( ^ ^ ^ * * * u t u o X X # # # @ # # . . . j j j f f f + + + & & & t q q ~ ~ ~ / / / ",
"_ _ _ ( _ ( ^ ^ ^ * * * u u u X X X @ # # # # # . . . j j j f f f + + + & & & q q q ~ ~ ~ / / / ",
"_ _ _ ( _ ( ^ ^ ^ * * * u u u X X X # # # # # # . . . j j j f h f + + + & & & q q q ) ~ ~ / / / ",
"( ( ( - - - & & & w i y . o . + + . k k k b b b @ @ @ a p p f f p G G G # # # y y t : : : ~ ~ ~ ",
"( ( ( - - - & & & y y y . . . + + . k k k b b b @ @ @ p p p f h f G G A # + o y y y : : : ~ ~ ~ ",
"( ( ( - - - & & & y y y . . . + + . k k c b b b @ @ @ p s p f f f G G G # # # y y y : : ; ~ ~ ~ ",
"* * * q q q u u u . . . s s s + + + n n n z z z O O O 0 0 0 9 9 9 F F F + + + r r e q q q : : : ",
"* * * q q q u t i . . . s s s + + + n n n z z z + O O 0 0 8 9 9 9 F F F O + + i r e q e q : : : ",
"* % * q q q u u i . . . s s s + + . n n n z z z + O O 0 0 0 0 9 9 F S F O + + r r r q q q : - : ",
"t t y r r e ,.,.,.# # o b b b . . . z z z v v v o o o v v v v v v c c c # # o ] ] ] } } } ! ^ ! ",
"q t t i r r ,.,.,.# # # b b b . . . z z z v v v o o o v n v v v v c c c # # # ] ] ] } } } ! ! ! ",
"t t t i r r -.:.,.# # # b b b . . . x z z v v v o o o v v v v n v c c c # # o ] ] ' ' } | ! ! ! ",
"y y t ;.;.-.' ' ' # + # z k z X X X #.#.#.%.%.%.X X X n n n z z b . . . ......[ [ [ ! ! ! , , , ",
"y i y ;.;.;.' ' ] # # o z z z X X X #.#.#.%.*.%.X X X n n n z z z . . . ......[ [ { ! ! ! , , , ",
"y y y ;.;.;.' ' ' # # # z z z X X X #.+.#.%.%.%.X X X n v n z z z . o . ......[ [ [ ! ! ! , , , ",
"r r r >.>.>.] ] ] / ` ` O O O . . . K K K %.%.%.# # #       o o o + + + ! ! ! _ _ _ > > , = = = ",
"i r r =.>.>.] ] ] ` ` ` O O O . . . K K K %.%.%.# # #       o o o + + + ! ! ! _ _ _ > > > = = = ",
"r r r >.>.>.] ] ' / ) ` O O O . . . K H K %.*.%.# # #       o o o + + + ! ! ! ^ _ _ > > > $ = = ",
"e q e t t t ~ ~ ~ ! ! ! ! ! ! ! ! ! + + + . . . 4 5 5 6 6 6 6 6 6 + @ O ) ) ) 2 2 2 : : ; y y y ",
"u e e q t t ~ ~ ~ ! ! ! ! ! ! ! ! ! O # + . . . 5 5 5 6 6 7 6 6 6 O O O ) ) ) 2 2 2 : : ; y y y ",
"e e e t t t ~ ~ ~ ! ! ! ( ! ! ( ! ~ + + + . . . 4 5 5 6 6 6 6 6 6 O O O ) ) ) 2 2 2 : - : y i y ",
"{ { { i i i : - : & ; ; $ $ $ * * * * * * u u u # # # O O   + + + ( ( ( 1 1 1 - - - -.-.-.-.,.,.",
"{ ] { i i u : : : ; ; ; $ $ $ * * * * * * u u i # # # O O O O + . ( ( ( 3 1 1 - - - -.-.-.,.,.,.",
"{ ] { i i i : : : ; ; ; = $ $ * * * * % * u u i # # # O O O + + . ( ( ( 1 , 1 - - - -.-.-.,.,.,."
};
