/* XPM */
static char *result[] = {
/* columns rows colors chars-per-pixel */
"48 48 75 1 ",
"  c #464646",
". c #474646",
"X c #464746",
"o c #474746",
"O c #464647",
"+ c #474647",
"@ c #464747",
"# c gray28",
"$ c #5D5A5A",
"% c #5C5B5A",
"& c #5D5B5A",
"* c #5D5A5B",
"= c #66FE00",
"- c #67FE00",
"; c #66FF00",
": c #67FF00",
"> c #66FE01",
", c #67FE01",
"< c #66FF01",
"1 c #67FF01",
"2 c #FEF200",
"3 c #FFF200",
"4 c #FEF300",
"5 c #FFF300",
"6 c #FEF201",
"7 c #FFF201",
"8 c #FEF301",
"9 c #FFF301",
"0 c #6E3098",
"q c #6F3098",
"w c #6E3198",
"e c #6F3198",
"r c #6E3099",
"t c #6F3099",
"y c #6E3199",
"u c #6F3199",
"i c #947EC4",
"p c #957EC4",
"a c #947FC4",
"s c #957FC4",
"d c #947EC5",
"f c #957EC5",
"g c #947FC5",
"h c #957FC5",
"j c #8E8E8E",
"k c #8F8E8E",
"l c #8E8F8E",
"z c #8F8F8E",
"x c #8E8E8F",
"c c #8E8F8F",
"v c gray56",
"b c #B4B4B4",
"n c #B5B4B4",
"m c #B4B5B4",
"M c #B5B5B4",
"N c #B4B4B5",
"B c #B5B4B5",
"V c #B4B5B5",
"C c gray71",
"Z c #B4A4D4",
"A c #B5A4D4",
"S c #B4A5D4",
"D c #B5A5D4",
"F c #B4A4D5",
"G c #B5A4D5",
"H c #B4A5D5",
"J c #B5A5D5",
"K c #E6E6E6",
"L c #E7E6E6",
"P c #E6E7E6",
"I c #E7E7E6",
"U c #E6E6E7",
"Y c #E7E6E7",
"T c #E6E7E7",
"R c #E7E7E7",
/* pixels */
"NNNbbb>>>>>>UUURRRPPPKKKmmm:::jjjccc---LLLYYYbNB",
"NNNbbb>>>>>>UUURRRTPPKKKmmm:::xjjccc-:-YLLLYYbNB",
"NNNbbb>>,>>>UUURRRPPPKKKmmM:::jjjccc-:-LLLYYYNVN",
"lllccc---KKKBBBdddippgggSSSADGDAD<<<KKKMMMCCCmbM",
"lllccc--=UKLBBBfddippgggSSSZAADDD<<1KKKCMmCCCmmm",
"lllccc---KKLBBBdgdppphggDSSADADDD<<<KKKMnMCCCmmm",
"vvv$$$---KKKggatttqqtuuutrr000yyyJJJXXXNNNccvkkk",
"vvv*$$---KKKgggtttqqquuurrr000yryJJJXXXNNNccckkk",
"vvv$&$---KKKgggtttqqtuuurrrq00yryJJJXXXNNNccckkk",
"&&%,,,<<<hhhqeqfffpppdddhhhgggfhfwwwHHHOOOllllll",
"&&&,,,<<<hhh0qqdffpppddihhhgggfffewyJHHOO+lllllz",
"&&&-1,<<<hhh0qqfffpppdddhhhgggfffw0wHHSOO+lllcll",
">>>1::sss000hhhgdgdddgggddiSSSdddddiwwwGGGXXX@@@",
"><,::;sssq00ghhgggdddggadddSSSfdddddewwGGGXXX@@@",
">>>:::sss000hhhhggdddgggdddSSSddddddwwwGGGXXX@@@",
"111gggrrrggahfssssiai888dffhhhSSSaaahhhuuuJJJ:11",
"111gggrrrggghhhssspii888fffhhhSSSaaahfhuuuJJJ111",
":11hggtrrggghhssssiii888fffhhhSSSaaahfhuuuJJJ:11",
"RIIsssuuuddiiiifff333888333fffiiiFFFffftttDDDYYU",
"ILIsssuuudddiiifff333888333fffiiiFFFffftttSDDYYY",
"RIIaphuuudddiiifff333984333ffpiiiFFFffftttDDDYYY",
"Nbndddyyyhhhppp353aaadddiii686pppaagiiieqeGGGbVN",
"bbbddduyyhhhppp333aaadddiai666pppaagpiieeeFGGNNB",
"Nbbdddyyyhhhppp353aiaddiiii666pppaagiiieeeGGGbNN",
"cccppf0eqaia555666444fdd773777999assdddtttGGGzzz",
"cccpppqqqaaa555686444ddd777777999sssdddttqGGGzzz",
"cccpppqqqaaa555662424ddd777777999sssfddtttGJAzzz",
"xxxsshtutaaapppgggaaagggaaaiaiiiifffaiarrrGGGkkk",
"xxxssstttaiapppgggaaagdgaaaiiipiidffaaarrrGGGkkk",
"xxxsssrttaaapppgdgaaagggaaaiiipiifffaaarrrGJAkkk",
"oooiii000aaafhfsssaaappfiiiiaissshgafhfyyyDDD###",
"oooiii000aaafhfsssaiapppiiiiiiassgggdffyyyDAD###",
"o.oiii000aaafffsshaaapppiiiiiispsgggfffyyySDD#+#",
">>,pppq00aaauuu000rrrttt000qqqtttryraaarrrHJJjlj",
"=>>ppp000siguuuq00rrrttq000qqtrttrrraaarrrJJJjjj",
">>>ipp000aaauuu000rr0ttt000qqqtttrrraaarrrJJJjjj",
",,>dffqqqsssdgdpppppphfhaaagggggagggpppwwwZZZ$$$",
",1,dffqqqsssdddpspppphhhaaggggggggggpppewwZZZ$$$",
",,,fffqqqsssdgdpppppphhhaaahggggagggippewwZZZ$$$",
":::ssseeefhffhfuuu000qqquuuqqqaaaggggggtttZZZOOO",
"1::ssseeefhfffpuuu000qqqutuqqqsaaggggggtutZZZOOO",
":::ssseeeffpdffyuu0000qquuuqqqaaaggggggtttZZZ OO",
";=;pppttqhhsgdgspssssdddpppiiihhhfffgggqqqDDD,,,",
"<;;ppptttghhgggsssspsddiippiiihhsfffgggqqqDDD,,,",
";;;ppptttghhgggssssshdddpppiiihhhdhfgggqqqDDD,1,",
"MMM000eeuuuueeeryrttt0w0ytuttt0000qqrttwwwJJJPTT",
"MnM00reeeuuueeerrrttt000uuuttt00rqqqttqwwwJJJTTT",
"MnM000eeeuuueeerrrttt00ruuuttt000qqttttewwJGDTTT"
};
