/* XPM */
static char *_c17713dede7450b9894081069a2998cgoDOzeMTIp2bDlHk[] = {
/* columns rows colors chars-per-pixel */
"48 48 25 1 ",
"  c #000000",
". c #6E402C",
"X c #6F402C",
"o c #6E412C",
"O c #6F412C",
"+ c #6E402D",
"@ c #6F402D",
"# c #6E412D",
"$ c #6F412D",
"% c #9C5A3C",
"& c #9D5A3C",
"* c #9C5B3C",
"= c #9D5B3C",
"- c #9C5A3D",
"; c #9D5A3D",
": c #9C5B3D",
"> c #9D5B3D",
", c #E4AA7A",
"< c #E5AA7A",
"1 c #E4AB7A",
"2 c #E5AB7A",
"3 c #E4AA7B",
"4 c #E5AA7B",
"5 c #E4AB7B",
"6 c #E5AB7B",
/* pixels */
"---XXXXXXXXXXXXXXXXXXXXXXXXXXXXXXXXXXXXXXXXXXXXX",
"---XXXXXXXXXXXXXXXXXXXXXXXXXXXXXXXXXXXXXXXXXXXXX",
"---XXXXXXXXXXXXXXXXXXXXXXXXXXXXXXXXXXXXXXXXXXXXX",
"444---------------444------XXX---------------XXX",
"444---------------444------XXX---------------XXX",
"444---------------444------XXX---------------XXX",
"444444444444444444444------XXX---444444444444---",
"444444444444444444444------XXX---444444444444---",
"444444444444444444444------XXX---444444444444---",
"                                                ",
"                                                ",
"                                                ",
"                                                ",
"                                                ",
"                                                ",
"                                                ",
"                                                ",
"                                                ",
"                                                ",
"                                                ",
"                                                ",
"                                                ",
"                                                ",
"                                                ",
"                                                ",
"                                                ",
"                                                ",
"                                                ",
"                                                ",
"                                                ",
"                                                ",
"                                                ",
"                                                ",
"                                                ",
"                                                ",
"                                                ",
"                                                ",
"                                                ",
"                                                ",
"                                                ",
"                                                ",
"                                                ",
"                                                ",
"                                                ",
"                                                ",
"                                                ",
"                                                ",
"                                                "
};
