/* XPM */
static char *result[] = {
/* columns rows colors chars-per-pixel */
"48 48 88 1 ",
"  c black",
". c #010000",
"X c #000100",
"o c #010100",
"O c #000001",
"+ c #010001",
"@ c #000101",
"# c #010101",
"$ c #6E402C",
"% c #6F402C",
"& c #6E412C",
"* c #6F412C",
"= c #6E402D",
"- c #6F402D",
"; c #6E412D",
": c #6F412D",
"> c #980031",
", c #990031",
"< c #EC1C24",
"1 c #EC1C25",
"2 c #9C5A3C",
"3 c #9D5A3C",
"4 c #9C5B3C",
"5 c #9D5B3C",
"6 c #9C5A3D",
"7 c #9D5A3D",
"8 c #9C5B3D",
"9 c #9D5B3D",
"0 c #FE7F00",
"q c #FE7E01",
"w c #FE7F01",
"e c #22B04C",
"r c #23B04C",
"t c #22B14C",
"y c #23B14C",
"u c #22B04D",
"i c #23B04D",
"p c #22B14D",
"a c #23B14D",
"s c #A8E61C",
"d c #A9E61C",
"f c #A8E71C",
"g c #A9E71C",
"h c #A8E61D",
"j c #A9E61D",
"k c #A8E71D",
"l c #A9E71D",
"z c #FEC20E",
"x c #FEC30E",
"c c #FEC20F",
"v c #FFC20F",
"b c #FFC30F",
"n c #FEF200",
"m c #FFF200",
"M c #FEF300",
"N c #FFF300",
"B c #FEF201",
"V c #FFF201",
"C c #FEF301",
"Z c #FFF301",
"A c #FEC535",
"S c #E4AA7A",
"D c #E5AA7A",
"F c #E4AB7A",
"G c #E5AB7A",
"H c #E4AA7B",
"J c #E5AA7B",
"K c #E4AB7B",
"L c #E5AB7B",
"P c #FEC640",
"I c #4D6CF2",
"U c #4C6DF2",
"Y c #4D6DF2",
"T c #4C6CF3",
"R c #4C6DF3",
"E c #F4E49C",
"W c #F5E49C",
"Q c #F4E59C",
"! c #F5E59C",
"~ c #F4E49D",
"^ c #F5E49D",
"/ c #F4E59D",
"( c #F5E59D",
") c #FEFEFE",
"_ c #FEFEFF",
"` c #FEFFFF",
"' c white",
"] c None",
/* pixels */
"FFFKKKHHHFGGhhhhhhgdggffvvvmmmCBCnnnZZZzzz999===",
"GFFKKFJHHGGGhhshkhgggffkvvvmmmCCCnnnZZZzzz999===",
"FFKKKKHHHGGGjkhhhhgggfffcvvmNmCCCnnnZZZzzc999===",
"FFF444337jjdjjjjhhfffcccMMMnnnCCCVVVVVVmmm666*%:",
"FFF424233jjjjjjhhhfffcccNMMnnnCCCVVVVVVmmm666***",
"FFF444353jjjhjjhkhffkvccMMMnnnCCCVVVVVVmmV666***",
"HKH777yyytttjjjkkkjjjnnBnnnMMM@@@###nnnbbb544===",
"HHH777yyytttjjjkkkjjjnnnnnnNMM@@@#+#nnnbbb444=;=",
"HHH797yyytttjjdkhkjjdnnnmnnMMM@@X###nnnbbb444===",
"KKKiiittppppggg/((dddbbbNmN~~~___YIY...LLL888&&&",
"KKKiiitttpppggg(^(dddbbbNmN~~~__)YYY...LLL888&&&",
"KKFiiitttappfgg(((dddbbbNNN~~~_`)YIY...LLL888&&;",
"LLGpppiiiaaayyyW!W~~~VVV(((!!!'''RRU(((###444&&&",
"LLLpppiiiaaayyaWWW~~~VZV(((!!!'''RTR(((##o424&&&",
"LLLpppiiraiayyyEWW~~~VVm(((!!!'''RRR(((###544&&&",
"GGG X tyyyyy   +++HJJBBB!W!EEEWWWWWW/((@@@222&&&",
"GGG   yyyyyy   +++JJJBBB!!!EEEWWWEWW(((@O@222&&&",
"GDG   yyyyyy   +++JJDVBB!W!EEEWWWWWW(^(#O@222&&&",
"GDG###   +#+DDDJJJooonnB///EQE!W!QQ/+OOxPxFFF===",
"GDG###   +++DDDJJJooonnn///EE~!!!QQQO@OxxxFFF===",
"GGG###   +++DDDHLJooonnn///EEE!!!QQ/OOOxxAFFF-==",
"LLLHHH+++333777666+++oXXGGLHHHKLGXoo333222zzz:::",
"LLLHHHO++357777662+++XXXGGGJHHLLLooo333242zzc;::",
"LLLHKH+++337797666+++XXXGGGHHHLLLooo333222zzc:-:",
"GGGGDG666555455oXX###@##...aaauuu+++777233qqq%%-",
"GGGGGG686559455XXX@#####...aaauuu+++777333qqq%*%",
"GGGFGG666555555XXX######...aaaupu+++777333qqq$%%",
"FFF$$$&&&&**.o.++.ssskkk@@@reeuueZZZ###000--%;;;",
"FSF%$$*&&&**...++.ssskkk@@@eeeupuZZN#+o00w=--:;;",
"FSF$$$&&&***...++.sshkkk@@@eteuuuZZZ###000---:;;",
"FSF333;;&...ttt+++lllfffOOO777666CCC+++KLL777;;;",
"FFF333;;;...ttt+++lllfff+OO773666CCCO++LLL677;;;",
"FFF333;;;...ttt++.lllfff+OO777766CBCO++LLG773;;;",
"FFF999===##okkk...fffjjjooojjjjjjhhh##oGGG888%%%",
"FFF999===###kkk...fffjjjooojljjjjhhh###GGG884$%%",
"FFF899=;$###kkk...gffjjjooojjjjljhhh##oGGG888$%%",
"JJJ222*%*#+#fsfXXX!!!^^^XXXlllffk...]]]DDD444---",
"JJJ222***##offfXXX!!!^(^XXXlllfff...]]]DDD444---",
"JJD222***###fffXXX!W!^^^XXXljlfff.o.]]]DDD444---",
"HHH979&&&GGGOOO...FFF^^^###   ooo+++KKKFSF455==$",
"HHH999&&&GDGOOO...FFF^^^###   ooo+++KKKFFF555===",
"HHH999&&&GGGOOO...FSF^(^###   ooo+++KKKFFF555===",
"424555222222337673+++...>,,<<<<<<+@O888237333---",
"544555222222333777O#+...,,,<<1<<<OOO888333333---",
"444555222222333777+++...>,,<<<<<<OOO888353333---",
":::%%%-:-$$$:::;;;:-::::###OO +++;;;:;&$$$;;;&&&",
":::%%%--%$$$::*;;;::::-:###OOOO+.:;;;;;$$$;=;&&&",
":::%%--:-$$$:::;;;::::::###OOO++.:;;;;;$&$;;;&&&"
};
