/* XPM */
static char *result[] = {
/* columns rows colors chars-per-pixel */
"48 48 105 2 ",
"   c black",
".  c #010000",
"X  c #000100",
"o  c #010100",
"O  c #000001",
"+  c #010001",
"@  c #000101",
"#  c #010101",
"$  c #007A23",
"%  c #017A23",
"&  c #007B23",
"*  c #6E402C",
"=  c #6F402C",
"-  c #6E412C",
";  c #6F412C",
":  c #6E402D",
">  c #6F402D",
",  c #6E412D",
"<  c #6F412D",
"1  c #980030",
"2  c #980130",
"3  c #990130",
"4  c #990031",
"5  c #990131",
"6  c #ED1C24",
"7  c #EC1D24",
"8  c #ED1D24",
"9  c #ED1C25",
"0  c #EC1D25",
"q  c #ED1D25",
"w  c #9C5A3C",
"e  c #9D5A3C",
"r  c #9C5B3C",
"t  c #9D5B3C",
"y  c #9C5A3D",
"u  c #9D5A3D",
"i  c #9D5B3D",
"p  c #22B04C",
"a  c #23B04C",
"s  c #22B14C",
"d  c #23B14C",
"f  c #22B04D",
"g  c #23B04D",
"h  c #22B14D",
"j  c #23B14D",
"k  c #A8E61C",
"l  c #A9E61C",
"z  c #A8E71C",
"x  c #A9E71C",
"c  c #A8E61D",
"v  c #A9E61D",
"b  c #A8E71D",
"n  c #A9E71D",
"m  c #FEC20E",
"M  c #FEC30E",
"N  c #FEC20F",
"B  c #FEC30F",
"V  c #FEF200",
"C  c #FFF200",
"Z  c #FEF300",
"A  c #FFF300",
"S  c #FEF201",
"D  c #FFF201",
"F  c #FEF301",
"G  c #FFF301",
"H  c #E4AA7A",
"J  c #E5AA7A",
"K  c #E4AB7A",
"L  c #E5AB7A",
"P  c #E4AA7B",
"I  c #E5AA7B",
"U  c #E4AB7B",
"Y  c #E5AB7B",
"T  c #4C6CF2",
"R  c #4D6CF2",
"E  c #4C6DF2",
"W  c #4D6DF2",
"Q  c #4D6CF3",
"!  c #4C6DF3",
"~  c #4D6DF3",
"^  c #F4E49C",
"/  c #F5E49C",
"(  c #F4E59C",
")  c #F5E59C",
"_  c #F4E49D",
"`  c #F5E49D",
"'  c #F4E59D",
"]  c #F5E59D",
"[  c #D2F8BC",
"{  c #D3F8BC",
"}  c #D2F9BC",
"|  c #D3F9BC",
" . c #D2F8BD",
".. c #D2F9BD",
"X. c #FEF8BC",
"o. c #FFF8BC",
"O. c #FEF9BC",
"+. c #FFF9BC",
"@. c #FEF8BD",
"#. c #FEF9BD",
"$. c #FFF9BD",
"%. c #FFFEFE",
"&. c #FFFFFE",
"*. c #FEFEFF",
"=. c #FFFEFF",
/* pixels */
"K K K U U U P P P K L L L L L o o o b b b n n n c c c c c k       K L L H J J I I I i i i : : : ",
"L K K U U K I P P L L L L L Y o o o b b z n n n c c c c c c       L L L J J J P I I i i i : : : ",
"K K U U U U P P P L L L L L L o o o b b b n n n v c c c c c       L L L H J J I I I i i i : : : ",
"K K K + # . @ @ @ r r r @ @ @ c c c c b c c c c v v v v c c k k k @ @ @ e e e + + + # # # ; = < ",
"K K K + + + @ @ @ r r r @ @ @ v c k c c c c b c v v v c c c k k k @ @ @ e e e O + + # # # ; ; ; ",
"K K K + + + @ @ @ r r r @ @ @ c c c c c c c c c v v v c c k k k k @ @ @ e e e + + + # + # ; ; ; ",
"X X X J J J ' ] ] X o o c v v S S S S S S D D D D D C A A A V V V D D C O + . ] ] ] K K K o o o ",
"o X X J J J ] ] ] o o o c v v S S S S S S S D D D D D A A A C Z V D D D + + + ] ] ] K K K o o o ",
"X X X J J J ] ] ) X o o v v v S S S S S S D D D D D C A A A V V V D D C + + . ] ] ] K K K o o o ",
"U U U X X X ( ( ( C C C F S F       Z Z Z C V V ( ( ( ^ ^ ^ @ @ @ G F F V V V ] ] ] # # # - - - ",
"U U U X X X ( ( ( C C C F F F     O A Z Z V Z V ( ( ( ^ ( ^ @ @ @ F F F C V V ] ] ] # # # - - - ",
"U U K X X X ( ( ( C C D F F F       A Z Z V V V ( ( ' ^ ^ ^ @ @ @ F F F V V V ] ] ] # # # - - , ",
"Y Y L       ' ] ] V Z V *.*.*.E E E # # # / / / ) ) ) . . . R R R &.&.&.D D D / / ` @ @ @ - - - ",
"Y Y Y       ] ] ] C V V =.*.*.W E E # + # / / / ) ) ) . . . R R R &.&.&.D D D / / ` @ @ @ - - - ",
"Y Y Y       ] ] ] V V S *.*.*.E E E # + o / / / ) ) ) . . . R R R &.&.&.D D D / / / @ @ @ - - - ",
"L L L y y y . . . V V V _ _ ^ E T E %.%.%.( ( ( ) ) ) *.*.*.Q ~ Q ( ( ( A A A X X @ w w w - - - ",
"L L L y y y . . . V V S _ _ _ E E ! %.%.%.( ( ( ) ) ) *.*.*.Q Q Q ( ( ( A C A X X X w w w - - - ",
"L J L y y y . . . V V V _ _ _ E E ! %.%.%.( ( ( ) ) ) *.*.*.Q Q Q ( ( ( A A A X X X w w w - - - ",
"L J L L K K Y P U # @ @ ( ( ( ` ] ` _ _ _ ] ] ] / / / _ _ _ ' ' ' ` ` / + + + M M M K K K : : : ",
"L J L K K K U U U @ @ X ( ^ ( _ ` ` _ _ _ ] ] ] / / ` _ _ _ ' ' ' ` ` ` + + + M M M K K K : : : ",
"L L L K K K U U U @ @ @ ( ( ( ` ` ` _ _ _ ] ] ] / / / _ ' _ ' ' ' _ ] ` + + + M M B K K K > : : ",
"Y Y Y P P P o o o | } } @ @ @ I I I ] ] ] ] ] ] ) / ) ) ) ) Y Y Y X X @ | | | + + + m m m < < < ",
"Y Y Y P P P X o o } } } @ O @ I I I ] ` ] ' ] ] ) ) ) ) ) ) Y Y Y X X X } | | + + + m m N , < < ",
"Y Y Y P U P o o o } } } @ @ X I I I ' ] ] ] ] ] ) ) ] ) / ) Y Y Y X X X | { | + + . m m N < > < ",
"L L L X X X [ [ [ { { { % % % p p p a a g d d d f h f h h h a a a $ $ $ ......{ { { O @ O = = > ",
"L L L X X X [ [ [ { { { $ % % p p p a a a d d d f h f h f h a a a $ $ $ .. ...{ { { O @ O = ; = ",
"L L L X X X [ [ [ { { { % % % p p p a a a d d d g f f h f h p a a $ & $ ......{ { { O O O * = = ",
"o o o $.#.#.O.O.O.- - - : : : f f f g g g h h h g h f a a a d d d , , , = = = @.@.@.@.@.@.# # # ",
"o . o #.#.#.O.O.O.- - - : : * f f f g g g h h h f f f a d a d d d , , , = = = @.@.@.@.@.@.# # # ",
"o o o #.#.#.O.O.#.- - , : : * f f f g g g h h h f f f a a a d d d , , - = = = @.@.X.@.@.@.# # # ",
"+ + + J H H +.+.+.h h s k k k , , , > > > C C C A A G ; ; ; - - - n v n s s s o.o.o.H L I       ",
"+ + + H H H +.+.+.h h h k k c , , , > > > C C C Z A A ; ; ; - - - n n n s s s o.o.o.J J J       ",
"+ + + H H P +.+.+.h h h k k k , , , : < > C C C A A G ; ; ; - - , n n n s s s o.o.o.H J J .     ",
"K K K O O   + + + o o o l l l n n n j j j V V V G G G g g g x l x k z k o o o       X   X = = = ",
"K K K O O O + + + o o # l l l n n n j j j V V V G D G g g g x x x k z k o o o       X X X * = = ",
"K K K O O O + + + o o o l l l n n n j j j V V V G G G g g a x x x k z k o o o     O X X X * = = ",
"I I I w w w ; = ; . . . .     n n n b b b v c k z z z k k k n n n   X   . . . J J J r r r > > > ",
"I I I w w w ; ; ; . . . .     b n n b b b c c k z z z k k k n n n       . . . J J J r r r > > > ",
"I I J w w w ; ; ; . . .     O n n n b b b c c c z z z k k k n n n       . . . J J J r r r > > > ",
"P P P i u i o o o 9 9 9 1 1 1 . . .       . . . . . . . . . + # + 2 2 2 8 6 8 # # # r t t : : * ",
"P P P i i i X o o 9 9 9 1 2 1 . . .       . . . . . . . . . + + + 2 2 2 8 8 8 # # # t t t : : : ",
"P P P i i i o o o 9 9 9 1 1 1 . . .       . . + . . . . . . + # + 3 2 2 8 8 8 # # # t t t : : : ",
"r w r t t t + + + 7 7 7 0 0 0 3 3 3 # # # : > > > < > X X X 5 4 5 q q q 0 0 0 O O O e e e > > > ",
"t r r t t t + # + 7 7 7 0 0 0 3 3 3 # # o > > > > > > X X X 5 5 5 q q q q 0 0 O O O e e e > > > ",
"r r r t t t + + + 8 7 7 0 0 7 3 3 3 # # # > > = > > > X X X 5 4 5 q q q 0 0 0 O @ O e e e > > > ",
"< < < = = = > < > . o . + + + . . . < > < < < < < < < : , : o . o             * * * , , , - - - ",
"< < < = = = > > = . . . + + + . . . < < < < > < < < < : : : o . o             * * * , : , - - - ",
"< < < = = > > < > . . . + + + . . . < < < < < < < < < : : : o o o   X O       * - * , , , - - - "
};
