/* XPM */
static char *result[] = {
/* columns rows colors chars-per-pixel */
"48 48 89 1 ",
"  c black",
". c #010000",
"X c #000100",
"o c #010100",
"O c #000001",
"+ c #010001",
"@ c #000101",
"# c #010101",
"$ c #6E402C",
"% c #6F402C",
"& c #6E412C",
"* c #6F412C",
"= c #6E402D",
"- c #6F402D",
"; c #6E412D",
": c #6F412D",
"> c #980031",
", c #990031",
"< c #EC1C24",
"1 c #EC1C25",
"2 c #9C5A3C",
"3 c #9D5A3C",
"4 c #9C5B3C",
"5 c #9D5B3C",
"6 c #9C5A3D",
"7 c #9D5A3D",
"8 c #9C5B3D",
"9 c #9D5B3D",
"0 c #FE7F00",
"q c #FE7E01",
"w c #FE7F01",
"e c #22B04C",
"r c #23B04C",
"t c #22B14C",
"y c #23B14C",
"u c #22B04D",
"i c #23B04D",
"p c #22B14D",
"a c #23B14D",
"s c #A8E61C",
"d c #A9E61C",
"f c #A8E71C",
"g c #A9E71C",
"h c #A8E61D",
"j c #A9E61D",
"k c #A8E71D",
"l c #A9E71D",
"z c #FEC20E",
"x c #FFC30E",
"c c #FEC20F",
"v c #FFC20F",
"b c #FEC30F",
"n c #FFC30F",
"m c #FEF200",
"M c #FFF200",
"N c #FEF300",
"B c #FFF300",
"V c #FEF201",
"C c #FFF201",
"Z c #FEF301",
"A c #FFF301",
"S c #E4AA7A",
"D c #E5AA7A",
"F c #E4AB7A",
"G c #E5AB7A",
"H c #E4AA7B",
"J c #E5AA7B",
"K c #E4AB7B",
"L c #E5AB7B",
"P c #4D6CF2",
"I c #4C6DF2",
"U c #4D6DF2",
"Y c #4C6CF3",
"T c #4C6DF3",
"R c #E5AE82",
"E c #E5AF85",
"W c #F4E49C",
"Q c #F5E49C",
"! c #F4E59C",
"~ c #F5E59C",
"^ c #F4E49D",
"/ c #F5E49D",
"( c #F4E59D",
") c #F5E59D",
"_ c #FEFEFE",
"` c #FEFEFF",
"' c #FEFFFF",
"] c white",
"[ c None",
/* pixels */
"FFFKKKzzzAAAmmmZVZMMMvvvffggdghhhhhhSDDJJJ999===",
"GFFKKFzzzAAAmmmZZZMMMvvvkffggghkhshhDDDHJJ999===",
"FFKKKKczzAAAmmmZZZMBMvvcfffggghhhhkjSDDJJJ999===",
"FFF444MMMCCCCCCZZZmmmNNNcccfffhhjjjjdjj666666*%:",
"FFF424MMMCCCCCCZZZmmmNNBcccfffhhhjjjjjj666666***",
"FFF444CMMCCCCCCZZZmmmNNNccvkffhkhjjhjjj666666***",
"HKH777nnnmmm###@@@NNNmmmVmmjjjkkkjjjtttyyy544===",
"HHH777nnnmmm#+#@@@NNBmmmmmmjjjkkkjjjtttyyy444=;=",
"HHH797nnnmmm###X@@NNNmmMmmmdjjkhkdjjtttyyy444===",
"KKK777&&&...UPU```^^^BMBnnnddd))(gggppppttiii&&&",
"KKK777&&;...UUU_``^^^BMBnnnddd)/)gggppptttiii&&&",
"KKF777&&&...UPU_'`^^^BBBnnnddd)))ggfppatttiii&&;",
"LLG222###)))ITT]]]~~~)))CCC^^^Q~Qyyyaaaiiippp&&&",
"LLL222o##)))TYT]]]~~~)))CAC^^^QQQayyaaaiiippp&&&",
"LLL242###)))TTT]]]~~~)))MCC^^^QQWyyyaiariippp&&&",
"GGG666@@@))(QQQQQQWWW~Q~VVVJJH+++   yyyyyt X &&&",
"GGG666@O@)))QQWQQQWWW~~~VVVJJJ+++   yyyyyy   &&&",
"GDG666@O#)/)QQQQQQWWW~Q~VVCDJJ+++   yyyyyy   &&&",
"GDGGFFLEKOO+(!!~Q~W!W(((VmmoooGGGSSS+#+   ###===",
"GDGFFFKKKO@O!!!~~~^WW(((mmmoooGGGSFS+++   ###===",
"GGGFFFRKKOOO(!!~~~WWW(((mmmoooGDLSSS+++   ###-==",
"LLLHHH455333ooXGLKHHHLGGXXo+++333NNN333+++zzz:::",
"LLLHHH455357oooLLLHHJGGGXXX+++233NNN333++Ozzc;::",
"LLLHKH555337oooLLLHHHGGGXXX+++333NNN333+++zzc:-:",
"GGGGDG666555+++uuuaaa...##@###XXobbb777233qqq%%-",
"GGGGGG686559+++uuuaaa...#####@XXXbbb777333qqq%*%",
"GGGFGG666555+++upuaaa...######XXXbbb777333qqq$%%",
"FFF$$$&&&###AAAeuueer@@@kkksss.++.o.nnx000--%;;;",
"FSF%$$*&&o+#BAAupueee@@@kkksss.++...nvn00w=--:;;",
"FSF$$$&&&###AAAuuuete@@@kkkhss.++...nnn000---:;;",
"FSF333;;&+++ZZZ666777OOOffflll+++ttt...KLL777;;;",
"FFF333;;;++OZZZ666377OO+ffflll+++ttt...LLL677;;;",
"FFF333;;;++OZVZ667777OO+ffflll.++ttt...LLG773;;;",
"FFF999===o##hhhjjjjjjooojjjfff...kkko##GGG888%%%",
"FFF999===###hhhjjjjljooojjjfff...kkk###GGG884$%%",
"FFF899=;$o##hhhjljjjjooojjjffg...kkk###GGG888$%%",
"JJJ222*%*[[[...kfflllXXX///~~~XXXfsf#+#DDD444---",
"JJJ222***[[[...ffflllXXX/)/~~~XXXfffo##DDD444---",
"JJD222***[[[.o.fffljlXXX///~Q~XXXfff###DDD444---",
"HHH979&&&GGG+++ooo   ###///FFF...OOOKKKFSF455==$",
"HHH999&&&GDG+++ooo   ###///FFF...OOOKKKFFF555===",
"HHH999&&&GGG+++ooo   ###/)/FSF...OOOKKKFFF555===",
"424555222222O@+<<<<<<,,>...+++888444888237333---",
"544555222222OOO<<<1<<,,,...+#O884444888333333---",
"444555222222OOO<<<<<<,,>...+++888444888353333---",
":::%%%-:-$$$:::+++ OO###:::=;=;;;;;;:;&$$$;;;&&&",
":::%%%--%$$$::*.+OOOO###:::===;;;:;;;;;$$$;=;&&&",
":::%%--:-$$$:::.++OOO###:::===;;&:;;;;;$&$;;;&&&"
};
