/* XPM */
static char *result[] = {
/* columns rows colors chars-per-pixel */
"48 48 73 1 ",
"  c black",
". c #010000",
"X c #000100",
"o c #010100",
"O c #000001",
"+ c #010001",
"@ c #000101",
"# c #010101",
"$ c #6E402C",
"% c #6F402C",
"& c #6E412C",
"* c #6F412C",
"= c #6E402D",
"- c #6F402D",
"; c #6E412D",
": c #6F412D",
"> c #980030",
", c #990030",
"< c #990130",
"1 c #980031",
"2 c #990031",
"3 c #980131",
"4 c #EC1C24",
"5 c #ED1C24",
"6 c #EC1D24",
"7 c #ED1D24",
"8 c #ED1C25",
"9 c #EC1D25",
"0 c #9C5A3C",
"q c #9D5A3C",
"w c #9C5B3C",
"e c #9D5B3C",
"r c #9C5A3D",
"t c #9D5A3D",
"y c #9D5B3D",
"u c #22B04C",
"i c #23B04C",
"p c #22B14C",
"a c #23B14C",
"s c #22B04D",
"d c #23B04D",
"f c #22B14D",
"g c #23B14D",
"h c #A8E61C",
"j c #A9E61C",
"k c #A8E71C",
"l c #A9E71C",
"z c #A8E61D",
"x c #A9E61D",
"c c #A8E71D",
"v c #A9E71D",
"b c #FEC20E",
"n c #FEC30E",
"m c #FEC20F",
"M c #FEC30F",
"N c #FEF201",
"B c #FFF201",
"V c #FFF301",
"C c #E5AA7A",
"Z c #E4AB7A",
"A c #E5AB7A",
"S c #E4AA7B",
"D c #E5AA7B",
"F c #E4AB7B",
"G c #E5AB7B",
"H c #F4E49C",
"J c #F5E49C",
"K c #F4E59C",
"L c #F5E59C",
"P c #F4E49D",
"I c #F5E49D",
"U c #F4E59D",
"Y c #F5E59D",
/* pixels */
"ZZZFFFSSSOOO@##. OccckkkzzzvzkO++++.#+#DDDyyy===",
"AZZFFZDSSOOO###   vcckkkzzzccc+#.+++###SDDyyy===",
"ZZFFFFSSSOOO##o  Occckkkzzzccc++++#.#+#DDDyyy===",
"ZZZ@O@...xxxhhzjljvvvjjjhhhczcczcxxxjjjooo...*%:",
"ZZZ@@@...xxxhhhjjjvvvjjjhhhccccccxxxjjjooo ..***",
"ZZZ@@@...xxxhhhhjjvxvjjxjhhccccccxxxjjjo.o...***",
"   YYYPPPUUUvvvvvvkhkxxxjjjvvvxzzcccHHHJJJHHHXXX",
".  YYLPPHUUUvvvvvvkkkxxxjjjvvvzzzcccJKHJLJHHHXXX",
".X YYYPPPUUUcvvvvvkkkxvxjljvvvzzhcccHHHJJJJHHXXX",
"FFF.  XXXJJJPPPzzzzzzhhhhhhlkccccJJJPPPooo###&&&",
"FFF   XXXJJJPPPzczzczhhhhhzkkkczcJLJPPPXoo##o&&&",
"FFZ  OXX@JJJPPPzzzzzzhhhhhhkkkcckHJJPPPooo###&&;",
"GGA+@OBVBXX@XXXkllxxxczcvvvjjjlllXXX@@@BNNOOO&&&",
"GGG+O BBBXXXXXXlllxxxcccvvvjjjlllXXX@O@NNNOOO&&&",
"GGGOOOBBBX XXXXlllxxxcccvvvjjjllloXX@@XNNNOOO&&&",
"AAArrr...qqq+++vvvlllzczzzzjjjkkcXXXwww##o000&&&",
"AAArrr..+qeq+++vxvllvzzzzzzjjjkkcXXXwww###000&&&",
"ACArrr...0qq+++vxvlllzzzzzzjjjkkkoX@www###000&&&",
"ACAAZZGSF@@@......dddccccvvpaaXXX....o.nnnZZZ===",
"ACAZZZFFF@@@......dddcckvxvaaaoXX......nnnZZZ===",
"AAAZZZFFF#@@......dddcccvvvaaaXXX.....+nnMZZZ-==",
"GGGSSSXXXzzzllliid###jhhvvv+++upuxxxzzzO@Obbb:::",
"GGGSSSXXXzchllliii##ohhhvvv+++upuxxxzzzOOObbm;::",
"GGGSFSXXXzzzllliai###hhzvvv+++uuuxxxzzzOOObbm:-:",
"AAAooolkkhhhcccuuu++.ddddddOOOdssxvxzzzhhhXXX%%-",
"AAAoookkchhhcccuus+++dddsddO@OsssxxxxczhhhXXX%*%",
"AAAooolkkhhhcccuuu+++ddddgdOOOdssxvxzzzhhhoXX$%%",
"XXXkkkzzz%%%jjjhhhdssooo###dddzzzhhh:::ccchhh...",
"X Xkhkzzz%%%hjjhhhsssooo###dddzzzhhh:::ccchhh...",
"XX@kkkzzz%%%jjjhhhsfuoo####dddzzzhhh:::czchhh.o.",
"XXXYUUHHHzzz:::***;;;======;;;--%%%%xzzIIIYYLOOO",
"XXXUUUHHHzzz:-:***;=;==$===;;;---%%-zzzIYIYYLO@O",
"XXXUPUHHHzzz:::***;;;-=====;;;---%*%zzzIYIYYYOOO",
"#@@JJJZZZkkkkllhhhhhhkllxxxjjjllljjjkllAZFUUU...",
"@@@JJIAZZkkklllhhhhhhkllzxxjjjllvjljlllZZFUUU..+",
"@@@JJJZZZkkkllljhzhhhllvxxxjjjllljjjlllZZZUUU...",
"DDD+++OO    kkkvvvzzzzzzhhhzzzzzhlll.  X XXXX---",
"DDD+++O@O   kkkvvvzczzzhjhhzzzzzzlll   XXXX X---",
"DDC+++OO    kkkvvvzzzzzzhhhzzzzczlll   XXXXXX---",
"SSSyty+++111XXXlllxxxvvvlllxxxjjjooo,,,###wee==$",
"SSSyyyO+.111XXXlllxxxvvvkllxxxjjjo.o,,,###eee===",
"SSSyyy+++131XXXljlxxxvvvlllxxxjljooo,,,###eee===",
"w0weee000XXX111646766OOO#+#558544,,2@##0qtqqq---",
"ewweee000XXX111769666OOO@#o575444><,###qqqqqq---",
"wwweee000XXX111669669OOO###555444,,,###qeqqqq---",
":::%%%-:-$$$++++OOoXX::::::XXXOOO.  :;&$$$;;;&&&",
":::%%%--%$$$+++OOOX X:-::::XXXO@O   ;;;$$$;=;&&&",
":::%%--:-$$$++++OOXXX::::::XXXOOO   ;;;$&$;;;&&&"
};
